<svg id="Layer_1" data-name="Layer 1" xmlns="http://www.w3.org/2000/svg" viewBox="0 0 382.28 373.63"><defs><style>.cls-1{fill:#e92f30;}.cls-2{fill:#231f20;}.cls-3,.cls-4,.cls-6{fill:#fff;}.cls-4{font-size:60px;}.cls-4,.cls-6{font-family:Castellar, Castellar;}.cls-5{fill:#ea3030;}.cls-6{font-size:59.27px;}</style></defs><title>clifton-logo</title><circle class="cls-1" cx="191.14" cy="186.82" r="159.38"/><ellipse class="cls-2" cx="191.14" cy="186.82" rx="191.14" ry="186.82"/><ellipse class="cls-3" cx="191.14" cy="186.79" rx="186.3" ry="182.09"/><ellipse class="cls-2" cx="191.14" cy="186.79" rx="183.07" ry="178.93"/><text class="cls-4" transform="translate(18.72 216.42) rotate(70.94)">o</text><text class="cls-4" transform="matrix(0.65, 0.76, -0.76, 0.65, 40.71, 274.57)">n</text><text class="cls-4" transform="matrix(0.82, 0.57, -0.57, 0.82, 82.66, 318.96)"> </text><text class="cls-4" transform="translate(105.19 335.34) rotate(21.42)">c</text><text class="cls-4" transform="translate(155.77 353.37) rotate(5.35)">l</text><text class="cls-4" transform="translate(198.37 356.13) rotate(-6)">i</text><text class="cls-4" transform="translate(226.45 353.23) rotate(-17.02)">f</text><text class="cls-4" transform="translate(266.01 340.76) rotate(-32.04)">t</text><text class="cls-4" transform="matrix(0.63, -0.77, 0.77, 0.63, 309.72, 312.57)">o</text><text class="cls-4" transform="matrix(0.31, -0.95, 0.95, 0.31, 347.89, 263.43)">n</text><circle class="cls-3" cx="191.14" cy="186.82" r="114.13"/><g id="star-rate"><polygon class="cls-5" points="191.14 228.12 254.47 274.33 230.51 199.02 293.84 154.51 216.81 154.51 191.14 77.48 165.46 154.51 88.43 154.51 151.77 199.02 127.8 274.33 191.14 228.12"/></g><polygon class="cls-3" points="208.84 153.66 208.87 151.09 192.26 183.68 196.03 191.26 208.84 153.66"/><path class="cls-3" d="M198.7,203.55l-15.1,16.28a8.25,8.25,0,0,0-1-.09c-4.47-.08-8.61,3.45-9.85,8.39a11.54,11.54,0,0,0,.76,7.94,8.76,8.76,0,0,0,5.73,4.76,8.07,8.07,0,0,0,1.87.25h0a9.94,9.94,0,0,0,8.52-5.17,2.38,2.38,0,0,0,1.57-4.5,11.38,11.38,0,0,0-1-6.66,9.23,9.23,0,0,0-2.74-3.33l13.06-12.27ZM187.61,226a8.66,8.66,0,0,1,.55,6c-.92,3.66-3.87,6.28-7,6.22a5.71,5.71,0,0,1-1.22-.16,6,6,0,0,1-3.86-3.26,8.69,8.69,0,0,1-.55-6c.92-3.66,3.87-6.28,7-6.22a5.51,5.51,0,0,1,1.23.16A5.93,5.93,0,0,1,187.61,226Z" transform="translate(-13.29 -8.76)"/><path class="cls-3" d="M242.05,240.53c-.33-.54-7-3.63-7.16-7.24a12.2,12.2,0,0,0-.18-4c-1.06-5-5.07-8.67-9.54-8.75h-.37L208.08,201.7l-20.91-42,.47,3.7,14,43.78,5.19.21,13,14.9a9.52,9.52,0,0,0-2.44,2.93,11.54,11.54,0,0,0-1.05,7.91c1.06,5,5.07,8.67,9.54,8.75a8.53,8.53,0,0,0,1.87-.19,8.35,8.35,0,0,0,3.72-1.85c3.54-1.36,7.1,1.88,8.09,2.28S242.4,241.1,242.05,240.53Zm-37.74-35.92a1.5,1.5,0,1,1,1.53-1.47A1.51,1.51,0,0,1,204.31,204.61Zm26.83,31.2a6,6,0,0,1-4,3.12,5.31,5.31,0,0,1-1.23.12c-3.15-.05-6-2.78-6.78-6.47a8.65,8.65,0,0,1,.77-5.95,6,6,0,0,1,4-3.12,5.47,5.47,0,0,1,1.24-.11c3.15.05,6,2.78,6.79,6.47A8.68,8.68,0,0,1,231.14,235.81Z" transform="translate(-13.29 -8.76)"/><text class="cls-6" transform="translate(107.88 89.49) rotate(-31.79)">E</text><text class="cls-6" transform="matrix(0.97, -0.22, 0.22, 0.97, 136.74, 70.07)">D</text><text class="cls-6" transform="translate(180.27 59.05) rotate(6.31)">D</text><text class="cls-6" transform="matrix(0.92, 0.39, -0.39, 0.92, 219.56, 61.87)">Y</text><text class="cls-6" transform="translate(256.51 78.25) rotate(33.12)">’</text><text class="cls-6" transform="matrix(0.76, 0.65, -0.65, 0.76, 265.74, 83.39)">s</text></svg>