<?xml version="1.0" encoding="utf-8"?>
<!-- Generator: Adobe Illustrator 22.1.0, SVG Export Plug-In . SVG Version: 6.00 Build 0)  -->
<svg version="1.1" id="Layer_1" xmlns="http://www.w3.org/2000/svg" xmlns:xlink="http://www.w3.org/1999/xlink" x="0px" y="0px"
	 viewBox="0 0 382.3 373.6" style="enable-background:new 0 0 382.3 373.6;" xml:space="preserve">
<style type="text/css">
	.st0{fill:#E92F30;}
	.st1{fill:#231F20;}
	.st2{fill:#FFFFFF;}
	.st3{enable-background:new    ;}
	.st4{fill:#EA3030;}
</style>
<title>coventry-logo</title>
<circle class="st0" cx="191.1" cy="186.8" r="159.4"/>
<ellipse class="st1" cx="191.1" cy="186.8" rx="191.1" ry="186.8"/>
<ellipse class="st2" cx="191.1" cy="186.8" rx="186.3" ry="182.1"/>
<ellipse class="st1" cx="191.1" cy="186.8" rx="183.1" ry="178.9"/>
<g class="st3">
	<path class="st2" d="M61.7,190.9c0.1,4.2-0.5,7.8-1.7,10.9c-1.3,3.1-3,5.6-5.2,7.7c-2.2,2-4.5,3.5-7,4.5c-2.5,1-4.9,1.5-7.2,1.6
		c-2.7,0.1-5.3-0.3-7.9-1.3c-2.6-0.9-5-2.4-7.2-4.3c-2.2-1.9-4-4.4-5.3-7.3s-2.1-6.2-2.2-9.8c-0.2-5.3,0.8-9.7,3-13.5
		c2.2-3.7,4.9-6.5,8.2-8.3c3.3-1.8,6.6-2.8,9.8-2.9c2.8-0.1,5.6,0.4,8.3,1.4c2.7,1,5.1,2.5,7.3,4.6c2.2,2,3.9,4.5,5.2,7.4
		C60.9,184.3,61.6,187.5,61.7,190.9z M60.5,189.7l0.3,0c-0.1-2.7-0.8-5.4-2-7.9c-1.2-2.6-2.9-4.8-4.9-6.7c-2-1.9-4.3-3.4-6.9-4.4
		c-2.6-1-5.2-1.5-8-1.4c-3.4,0.1-6.7,1.1-9.8,3.1c-3.2,1.9-5.7,4.6-7.6,7.9c-1.9,3.3-2.9,6.9-2.9,10.8l0.3,0
		c0.2-3.8,1.3-7.2,3.2-10.2s4.4-5.3,7.3-6.9c3-1.6,6-2.5,9.3-2.6c2.7-0.1,5.2,0.3,7.7,1.1c2.5,0.8,4.7,2,6.6,3.6
		c2,1.6,3.6,3.6,4.8,5.9C59.4,184.4,60.2,186.9,60.5,189.7z M60.9,192.6l-0.3,0c-0.1,1.9-0.5,3.8-1.2,5.8c-0.7,1.9-1.8,3.8-3.3,5.5
		s-3.6,3.1-6.3,4.2c-2.7,1.1-5.9,1.7-9.7,1.8c-2.5,0.1-4.9-0.1-7.1-0.7s-4.4-1.4-6.4-2.7c-2-1.3-3.6-2.9-4.9-5
		c-1.3-2.1-2.2-4.6-2.6-7.6l-0.3,0c0.2,2.5,0.8,4.9,1.8,7.1c1,2.2,2.5,4.2,4.3,5.9s4.1,3,6.7,3.9c2.6,0.9,5.5,1.4,8.7,1.3
		c3.5-0.1,6.5-0.7,9.1-1.9c2.6-1.1,4.8-2.6,6.5-4.5c1.7-1.9,3-3.9,3.8-6.2C60.5,197.3,60.9,195,60.9,192.6z M59.7,191.1
		c-0.1-3-1-5.8-2.6-8.3c-1.7-2.5-4-4.5-7-5.9c-3-1.4-6.6-2.1-10.6-1.9c-4.4,0.1-8,1.1-11,2.8c-3,1.7-5.1,3.9-6.5,6.6
		c-1.4,2.6-2,5.3-1.9,8.1c0.1,2.2,0.6,4.4,1.5,6.3c0.9,2,2.2,3.7,3.9,5.3c1.7,1.5,3.8,2.7,6.2,3.5c2.4,0.8,5.1,1.2,8.1,1.1
		c4.1-0.1,7.3-0.7,9.7-1.7c2.4-1,4.5-2.5,6.2-4.3c1.5-1.6,2.6-3.4,3.2-5.4C59.4,195.3,59.7,193.2,59.7,191.1z"/>
</g>
<g class="st3">
	<path class="st2" d="M60.6,212l0.3-0.1l5.9,13.6c-0.8,1.4-1.8,3.2-2.9,5.4c-1.1,2.2-2,4.1-2.8,5.7l-8.2,17.9
		c-1,2.4-1.9,4.2-2.4,5.5c-0.6,1.3-1.2,3-2,5c1.3-0.4,2.5-0.9,3.6-1.3c1.1-0.4,2.1-0.9,3.1-1.3l11.6-5.1c4.2-1.8,7.6-3.5,10.1-5.1
		l-1.9-7l0.3-0.1l7,16l-0.3,0.1l-3.9-6.1c-2.7,0.8-6,2-9.9,3.7l-29.5,12.8l-0.1-0.3c2.3-4.3,4.4-8.4,6.2-12.4l11.2-24.5
		c1.5-3.6,2.7-6.6,3.5-9c-2.6,0.8-4.9,1.7-7,2.6l-17.1,7.4c-2.3,1-4.9,2.4-7.9,4.1l2,7.3l-0.3,0.1l-7.1-16.4l0.3-0.1l3.8,6.2
		c1.4-0.3,3.3-1,5.7-1.9c2.4-0.9,4.6-1.8,6.4-2.6l13.2-5.7c1.6-0.7,3.1-1.4,4.6-2.1s3-1.5,4.4-2.3l1.1-4.7L60.6,212z M63.4,220.4
		l-22,48.3l2.5-1.1l20.5-44.9L63.4,220.4z"/>
</g>
<g class="st3">
	<path class="st2" d="M105.6,326.3l-8.3,3.7c-1.4-1.3-2.4-2.2-3.1-2.7c-0.8-0.6-2-1.4-3.5-2.4c-1.5-1-2.6-1.7-3.4-2.3
		c-3.1-2.4-5.5-5-7.2-7.8c-1.7-2.8-2.6-5.6-2.9-8.5c-0.3-2.8,0-5.6,0.7-8.1c0.8-2.6,1.9-4.9,3.5-6.9c2-2.6,4.3-4.7,6.9-6.2
		c2.6-1.5,5.3-2.4,8.1-2.8c2.8-0.3,5.7-0.1,8.5,0.7c2.8,0.8,5.5,2.2,7.9,4.1c0.6,0.5,1.1,0.8,1.2,1c0.2,0.1,0.5,0.4,1.1,0.9
		c0.6,0.5,1.1,0.9,1.7,1.4c2,1.7,3.5,3,4.6,3.9c2.5,1.9,4.1,3.1,5,3.5l-5.7,8l-0.3-0.2l2.4-6.4c-0.4-0.5-1.1-1.3-2.1-2.4
		c-1-1.1-2-2.2-3.1-3.1c-1-1-2.1-2-3.4-2.9c-3.2-2.5-6.4-3.9-9.6-4.4c-3.2-0.5-6.3,0-9.3,1.5c-2.9,1.5-5.6,3.7-7.9,6.7
		c-1.8,2.4-3.1,4.8-3.8,7.5c-0.7,2.6-0.9,5.2-0.5,7.7c0.4,2.5,1.2,4.9,2.6,7.1c1.3,2.2,3,4.1,5.1,5.7c2.1,1.6,4.3,2.7,6.6,3.4
		c2.3,0.7,4.9,0.7,7.8-0.1L105.6,326.3z M116.4,290.6l-2.7-2.1c-2.7-2.1-5.5-3.5-8.4-4.4c-2.9-0.8-5.8-1.1-8.6-0.7
		c-2.8,0.4-5.4,1.3-7.8,2.7c-2.4,1.4-4.5,3.4-6.3,5.7c-1.7,2.2-2.8,4.5-3.5,7.1c-0.7,2.6-0.8,5.3-0.4,8.1c0.4,2.8,1.4,5.5,3,8
		s3.7,4.9,6.5,7.1c1.2,1,2,1.5,2.4,1.8l0.2-0.3c-3.1-2.3-5.5-4.8-7.3-7.6c-1.7-2.7-2.8-5.5-3.1-8.2c-0.4-2.8-0.1-5.4,0.6-8
		c0.8-2.6,1.9-4.9,3.5-6.9c1.5-2,3.4-3.7,5.6-5.2c2.2-1.4,4.6-2.4,7.2-3c2.6-0.6,5.4-0.5,8.4,0.3c2.9,0.7,5.9,2.2,8.8,4.5l1.6,1.3
		L116.4,290.6z"/>
</g>
<g class="st3">
	<path class="st2" d="M148.7,305.5c3.9,1.3,7.1,3.1,9.6,5.4c2.4,2.3,4.2,4.8,5.3,7.6c1.1,2.8,1.7,5.5,1.8,8.2c0,2.7-0.3,5.1-1,7.3
		c-0.9,2.5-2.2,4.8-4,6.9c-1.8,2.1-4,3.8-6.5,5.2c-2.6,1.4-5.5,2.2-8.7,2.4c-3.2,0.3-6.5-0.2-10-1.4c-5-1.7-8.8-4.2-11.6-7.5
		c-2.7-3.3-4.4-6.9-5-10.6c-0.6-3.7-0.3-7.1,0.7-10.2c0.9-2.7,2.3-5.1,4.2-7.3c1.9-2.2,4.2-3.9,6.8-5.2c2.7-1.3,5.6-2.1,8.7-2.3
		C142.3,303.9,145.5,304.4,148.7,305.5z M147.2,306.2l0.1-0.3c-2.6-0.9-5.3-1.2-8.1-0.9s-5.5,1-8,2.2c-2.5,1.2-4.7,2.9-6.5,4.9
		c-1.9,2-3.2,4.4-4.1,7c-1.1,3.2-1.3,6.6-0.6,10.3s2.3,6.9,4.7,9.9c2.4,3,5.5,5.1,9.2,6.5l0.1-0.3c-3.5-1.5-6.3-3.7-8.4-6.6
		c-2.1-2.9-3.4-6-3.9-9.3c-0.5-3.3-0.2-6.5,0.8-9.6c0.9-2.5,2.1-4.8,3.7-6.8s3.5-3.7,5.7-5c2.2-1.3,4.6-2.1,7.2-2.5
		S144.4,305.5,147.2,306.2z M148.2,307.5c-2.9-1-5.8-1.1-8.7-0.4c-2.9,0.7-5.6,2.2-8,4.5c-2.4,2.3-4.2,5.4-5.5,9.3
		c-1.4,4.1-1.8,7.9-1.2,11.3c0.6,3.4,1.9,6.2,3.9,8.4c2,2.2,4.3,3.8,6.9,4.6c2.1,0.7,4.3,1,6.5,0.8c2.2-0.2,4.3-0.8,6.3-1.8
		s3.8-2.6,5.5-4.6c1.6-2,2.9-4.4,3.8-7.2c1.3-3.8,1.9-7.1,1.8-9.7c-0.1-2.6-0.7-5-1.9-7.3c-1-2-2.3-3.6-3.9-4.9
		C152,309.2,150.2,308.2,148.2,307.5z M150,306.8l-0.1,0.3c1.8,0.7,3.4,1.8,5,3.1c1.6,1.3,2.9,3,4,5.1c1.1,2,1.7,4.5,1.8,7.4
		c0.1,2.9-0.5,6.1-1.7,9.7c-0.8,2.3-1.8,4.5-3.1,6.5s-2.9,3.6-4.7,5c-1.9,1.4-4,2.3-6.4,2.8c-2.4,0.5-5.1,0.4-8-0.3l-0.1,0.3
		c2.4,0.7,4.8,0.9,7.3,0.8c2.4-0.2,4.8-0.8,7-2c2.2-1.1,4.2-2.8,6-4.9s3.2-4.7,4.2-7.7c1.1-3.3,1.6-6.3,1.4-9.2
		c-0.2-2.8-0.8-5.4-2-7.6c-1.2-2.2-2.6-4.2-4.5-5.7C154.3,308.8,152.2,307.7,150,306.8z"/>
</g>
<g class="st3">
	<path class="st2" d="M188.8,313.4l-7.7,1.2c1.2,3.8,2.9,8.5,5.4,13.9l4.2,9.4c0.9,2.2,2.3,4.9,4.1,8.3c0.7-1.2,1.5-2.9,2.4-5
		c0.9-2.1,1.7-4,2.4-5.8l4.4-10.9c1.7-4.4,2.9-7.8,3.6-10.3l-8.9-0.9l0-0.3l17.4-0.3l0,0.2l-5.3,1.2c-1.1,1.8-2.7,5.3-4.9,10.6
		l-9.6,23.8c-1.4,3.3-2.4,6.2-3.1,8.6l-0.4,0c-1.2-3.2-2.4-6.2-3.7-9.1l-9.7-21.6c-1.8-4.1-3.8-8-6-11.8l-5.2-0.9l0-0.3l20.4-0.3
		L188.8,313.4z M175,314.4l17.4,39l1-2.4l-16.3-36.6L175,314.4z"/>
</g>
<g class="st3">
	<path class="st2" d="M212.9,312.6l-0.1-0.3l29.9-8.8l3.3,8.5l-0.5,0.1l-4-6.3c-1.6,0.4-3.4,0.8-5.4,1.4c-3.6,1.1-6.5,2.2-8.5,3.3
		c0.5,3.1,1.3,6.7,2.5,10.6c0.7,2.4,1.4,4.4,2,5.9c3-0.7,4.9-1.2,5.7-1.4c2.1-0.6,4.3-1.4,6.4-2.3l-0.1-5.1l0.5-0.1l3.5,12l-0.5,0.1
		l-2.8-4.7c-1.7,0.3-3.5,0.7-5.5,1.3c-2.5,0.7-4.7,1.5-6.7,2.3c0.4,2.2,0.9,4.4,1.6,6.5c0.8,2.7,1.5,4.8,2.1,6.6
		c0.6,1.7,1.1,3.2,1.6,4.4c2.5,0,5.6-0.5,9.3-1.6c2.1-0.6,3.9-1.2,5.3-1.8l0.3-7.4l0.4-0.1l2,9l-30.3,8.8l-0.1-0.3l6.4-2.9
		c-0.1-0.8-0.3-2-0.6-3.6c-0.3-1.6-0.7-3.4-1.2-5.4s-0.9-3.6-1.2-5c-0.3-1.3-0.7-2.5-1-3.5l-2.1-7.1c-0.3-0.9-0.7-2.2-1.2-3.8
		s-1.1-3.3-1.8-5.1s-1.3-3.5-2-5.2L212.9,312.6z M221.7,310.9l11.4,39l1.9-0.6l-11.4-39L221.7,310.9z"/>
</g>
<g class="st3">
	<path class="st2" d="M242.5,306.2l-0.2-0.2l12.3-8.1c1.5,0.6,3.5,1.2,5.8,1.9c2.3,0.7,4.4,1.3,6.1,1.7l18.9,4.9
		c2.5,0.6,4.4,1.1,5.8,1.4c1.4,0.3,3.1,0.7,5.2,1.1c-0.6-1.2-1.3-2.3-1.9-3.3c-0.6-1-1.2-1.9-1.8-2.8l-7-10.5
		c-2.5-3.8-4.8-6.8-6.8-9l-6.5,3l-0.2-0.2l14.5-9.6l0.2,0.2l-5.3,4.9c1.2,2.5,3,5.5,5.3,9l17.7,26.7l-0.2,0.2
		c-4.6-1.5-9-2.8-13.2-3.9l-25.9-6.7c-3.8-0.9-6.9-1.5-9.4-1.9c1.2,2.4,2.5,4.5,3.8,6.4l10.2,15.4c1.4,2.1,3.2,4.4,5.4,7l6.8-3.2
		l0.2,0.2l-14.8,9.8l-0.2-0.2l5.4-4.8c-0.6-1.3-1.5-3-2.9-5.3s-2.6-4.2-3.7-5.8l-7.9-11.9c-0.9-1.4-1.9-2.8-2.9-4.1
		c-1-1.4-2-2.7-3-3.9l-4.8-0.2L242.5,306.2z M250.2,302l51,13.2l-1.5-2.3l-47.5-12.3L250.2,302z"/>
</g>
<g class="st3">
	<path class="st2" d="M287,273.3l15.4-20.2c0.9-1.2,1.8-2.4,2.5-3.5c0.7-1.1,1.6-2.5,2.7-4.2l8,5.2l-0.2,0.3l-6.8-2.5
		c-1.3,1.2-2.6,2.6-3.8,4.1c-1,1.3-1.9,2.6-2.5,3.8c-0.7,1.2-1.4,2.5-2,4c1.3,1.2,2.7,2.4,4,3.5c1.3,1.1,2.5,2.1,3.6,3
		c1.1,0.9,1.9,1.5,2.3,1.8l7.7,5.9c2,1.6,4.4,3.2,7,5c2.6,1.8,4.8,3.2,6.4,4.1l5.3-5.1l0.2,0.2l-13.4,17.6l-0.2-0.2l3.5-6.3
		c-3.1-3.1-7-6.5-11.9-10.2l-8.4-6.4c-1.7-1.3-3.5-2.6-5.2-3.8c-1.8-1.2-3.5-2.3-5.1-3.3c-0.9,0.7-1.9,1.6-3,2.7
		c-1.1,1.1-2,2.1-2.9,3.2c-1.3,1.7-2.4,3.5-3.4,5.3l4.3,5.9l-0.2,0.3l-7.2-6.3c0.4-0.4,1-1.1,1.8-1.9
		C285.9,274.6,286.5,273.9,287,273.3z M295.5,263.9l32.3,24.7l1.2-1.6l-32.3-24.7L295.5,263.9z"/>
</g>
<g class="st3">
	<path class="st2" d="M333.8,249l-8.5-3c-2.2-0.8-4.7-1.6-7.6-2.4s-5.2-1.4-6.9-1.8l-3.3,6.3l-0.3-0.1l6.4-18.2
		c1.2-3.4,2.9-6,4.9-7.5s4.2-2.5,6.2-2.6s3.7,0,5,0.4c1.8,0.6,3.2,1.6,4.3,2.8c1.1,1.3,1.8,2.7,2.2,4.3c0.4,1.6,0.4,3,0.1,4.4l0.1,0
		c0.9-1.1,2-1.9,3.1-2.4c0.9-0.4,2-0.8,3.5-1.3c1.5-0.4,3.4-1,5.9-1.6c2.5-0.7,4.5-1.2,5.9-1.6c1.4-0.4,2.6-0.9,3.6-1.3
		c2.1-1,3.4-2.3,3.9-3.8l0.3,0.1l-1.7,4.8c-0.9,2.7-2.5,4.5-4.7,5.6c-0.8,0.4-1.8,0.8-2.9,1.1c-1.1,0.3-2.8,0.8-5.2,1.5
		c-2.4,0.7-4.4,1.2-6,1.7c-1.6,0.5-2.7,0.9-3.5,1.2c-1.1,0.5-1.9,1.1-2.3,1.6c-0.5,0.6-1,1.5-1.4,2.8c-0.4,1.2-0.7,2.1-0.8,2.8
		c1,0.5,2,0.9,3.3,1.3l5.1,1.8c2.2,0.8,5.1,1.5,8.8,2.3l3.4-6.5l0.3,0.1l-7.2,20.5l-0.3-0.1l1.3-6.8c-1.8-0.9-4.3-2.1-7.6-3.4
		C337.7,250.5,335.3,249.6,333.8,249z M311.1,240.3l38.3,13.4l0.7-2l-38.3-13.4L311.1,240.3z M313.2,232.6l0.3,0.1
		c0.9-2.5,2.3-4.4,4.1-5.7c1.8-1.3,3.6-2,5.6-2.2s3.8,0,5.4,0.6c3.7,1.3,5.8,3.8,6.3,7.6l0.2-0.1c0.2-2-0.3-4-1.4-5.7
		c-1.1-1.8-2.8-3-5-3.8c-1.7-0.6-3.3-0.8-5-0.6c-1.6,0.2-3.1,0.7-4.4,1.5c-1.3,0.8-2.5,1.8-3.4,3.1c-1,1.2-1.7,2.6-2.2,4
		L313.2,232.6z M323,239.1l4.5,1.6c1.6,0.6,3.1,1,4.5,1.4c0.4-0.7,0.8-1.7,1.3-3.1c0.8-2.4,1.1-4.4,0.8-6.1c-0.3-1.7-1-3.1-2.1-4.2
		c-1.1-1.1-2.4-1.9-3.9-2.4c-1.5-0.5-3-0.7-4.5-0.6c-1.5,0.1-2.9,0.5-4.1,1.2c-1.2,0.6-2.3,1.5-3.2,2.5c-0.9,1-1.5,2.1-1.9,3.2
		c-0.4,1.1-0.6,1.9-0.7,2.6c1,0.5,2.5,1.2,4.4,2.1C320.1,238,321.7,238.6,323,239.1z M340.2,233.9l10.8-3c2.5-0.7,4.5-1.5,5.7-2.3
		c1.3-0.8,2.2-2,2.7-3.5l-0.3-0.1c-0.9,1.3-3.5,2.5-7.6,3.7l-8.6,2.4c-1.9,0.5-3.4,1.1-4.4,1.7c-1.1,0.6-2,1.6-2.7,2.8l0.2,0.2
		C337.1,235,338.5,234.4,340.2,233.9z"/>
</g>
<g class="st3">
	<path class="st2" d="M321.8,209.4l-1.2,5.9l-0.3,0l0.9-22.8l0.3,0l0.7,8.8c2.9-1.2,6.4-2.9,10.3-5.1c3.9-2.2,7.1-4.2,9.6-6
		c-2.2-2.1-5.3-4.7-9.2-7.6c-4-2.9-7.2-5.2-9.7-6.6l-1.4,8.5l-0.3,0l0.7-17l0.4,0l0.8,5.1c1.3,1.2,2.7,2.4,4.1,3.5s3.3,2.6,5.6,4.4
		c2.4,1.8,4.2,3.2,5.7,4.2c1.4,1,3.6,2.6,6.5,4.6c2.4,0.2,5.1,0.4,8,0.5c4,0.2,7.3,0,9.8-0.5l1.3-7.2l0.3,0l-0.8,22.2l-0.3,0
		l-0.8-7.2c-1.2-0.4-2.9-0.7-5-0.9c-2.1-0.3-4.1-0.4-6-0.5c-1.4-0.1-3.6-0.1-6.6-0.1c-2.1,1.1-4.6,2.4-7.5,4
		c-2.9,1.6-5.8,3.3-8.6,5.1C326.1,206.4,323.7,207.9,321.8,209.4z M362.8,195.1l0.1-2l-18.3-0.7l-22.9,13.1l-0.1,2.1l23.1-13.2
		L362.8,195.1z"/>
</g>
<circle class="st2" cx="191.1" cy="186.8" r="114.1"/>
<g id="star-rate">
	<polygon class="st4" points="191.1,228.1 254.5,274.3 230.5,199 293.8,154.5 216.8,154.5 191.1,77.5 165.5,154.5 88.4,154.5 
		151.8,199 127.8,274.3 	"/>
</g>
<polygon class="st2" points="208.8,153.7 208.9,151.1 192.3,183.7 196,191.3 "/>
<path class="st2" d="M185.4,194.8l-15.1,16.3c-0.3-0.1-0.7-0.1-1-0.1c-4.5-0.1-8.6,3.4-9.9,8.4c-0.7,2.7-0.4,5.5,0.8,7.9
	c1.1,2.4,3.2,4.1,5.7,4.8c0.6,0.2,1.2,0.2,1.9,0.2l0,0c3.6-0.1,6.8-2,8.5-5.2c1.2,0.4,2.6-0.2,3-1.5s-0.2-2.6-1.5-3
	c0.3-2.3,0-4.6-1-6.7c-0.6-1.3-1.6-2.5-2.7-3.3l13.1-12.3L185.4,194.8z M174.3,217.2c0.9,1.9,1.1,4,0.6,6c-0.9,3.7-3.9,6.3-7,6.2
	c-0.4,0-0.8-0.1-1.2-0.2c-1.7-0.5-3.1-1.7-3.9-3.3c-0.9-1.9-1.1-4-0.6-6c0.9-3.7,3.9-6.3,7-6.2c0.4,0,0.8,0.1,1.2,0.2
	C172.2,214.4,173.6,215.6,174.3,217.2z"/>
<path class="st2" d="M228.8,231.8c-0.3-0.5-7-3.6-7.2-7.2c0.2-1.3,0.1-2.7-0.2-4c-1.1-5-5.1-8.7-9.5-8.8h-0.4l-16.7-18.8l-20.9-42
	l0.5,3.7l14,43.8l5.2,0.2l13,14.9c-1,0.8-1.8,1.8-2.4,2.9c-1.3,2.4-1.7,5.2-1.1,7.9c1.1,5,5.1,8.7,9.5,8.8c0.6,0,1.3-0.1,1.9-0.2
	c1.4-0.3,2.7-0.9,3.7-1.9c3.5-1.4,7.1,1.9,8.1,2.3S229.1,232.3,228.8,231.8z M191,195.9c-0.8,0-1.5-0.7-1.5-1.5
	c0-0.8,0.7-1.5,1.5-1.5c0.8,0,1.5,0.7,1.5,1.5C192.5,195.2,191.8,195.9,191,195.9z M217.9,227.1c-0.8,1.6-2.3,2.7-4,3.1
	c-0.4,0.1-0.8,0.1-1.2,0.1c-3.1-0.1-6-2.8-6.8-6.5c-0.5-2-0.2-4.1,0.8-5.9c0.8-1.6,2.3-2.7,4-3.1c0.4-0.1,0.8-0.1,1.2-0.1
	c3.1,0.1,6,2.8,6.8,6.5C219.1,223.1,218.8,225.2,217.9,227.1z"/>
<g class="st3">
	<path class="st2" d="M86.2,53.4l-0.2-0.2l26.2-16.2l5.4,7.3l-0.4,0.2l-5.5-4.9c-1.5,0.8-3.1,1.7-4.8,2.8c-3.2,2-5.6,3.8-7.2,5.4
		c1.3,2.9,3,6,5.1,9.4c1.3,2.1,2.5,3.8,3.4,5.1c2.7-1.5,4.4-2.4,5.1-2.8c1.9-1.1,3.7-2.4,5.5-3.9l-1.5-4.9l0.4-0.3l6.5,10.5
		l-0.4,0.3l-3.9-3.7c-1.5,0.7-3.2,1.6-4.9,2.7c-2.2,1.3-4.1,2.7-5.7,4c1,2,2.1,3.9,3.3,5.7c1.5,2.3,2.7,4.2,3.7,5.7
		c1,1.5,1.9,2.7,2.7,3.8c2.4-0.6,5.2-2,8.4-4c1.9-1.2,3.4-2.2,4.6-3.1l-1.7-7.1l0.3-0.2l4.2,8l-26.5,16.4l-0.2-0.2l5.3-4.5
		c-0.3-0.8-0.8-1.9-1.5-3.3c-0.7-1.4-1.6-3-2.6-4.8c-1-1.8-1.8-3.2-2.5-4.4c-0.7-1.2-1.3-2.2-1.8-3.1l-3.8-6.2
		c-0.5-0.8-1.2-1.9-2.2-3.3c-0.9-1.4-2-2.9-3-4.4c-1.1-1.5-2.2-3-3.3-4.4L86.2,53.4z M94.1,49.5l21.1,34.1l1.7-1.1L95.8,48.4
		L94.1,49.5z"/>
</g>
<g class="st3">
	<path class="st2" d="M128.4,28.7l23.1-5.2c4.3-1,8.1-1.2,11.4-0.6c3.3,0.6,6.1,1.6,8.3,3.2s4,3.5,5.2,5.7c1.3,2.2,2.2,4.5,2.8,6.9
		c0.7,3,0.8,5.8,0.4,8.6c-0.4,2.8-1.3,5.3-2.7,7.6c-1.4,2.3-3.3,4.2-5.5,5.8c-2.3,1.6-4.9,2.7-7.9,3.4l-25.9,5.9l-0.1-0.3l6.6-2.5
		c0-1.7-0.4-4.4-1-8.1c-0.6-3.7-1.2-6.6-1.7-8.7l-1.7-7.4c-1.2-5.4-2.6-10.3-4-14.4l-7.2,0.5L128.4,28.7z M137.2,27.9l8.8,38.9
		l2-0.4l-8.8-38.9L137.2,27.9z M144.9,39.8l3.7,16.4c0.5,2.4,1.2,4.8,2.1,7.3c1.3,0.3,2.8,0.4,4.4,0.3c1.6-0.1,3.1-0.3,4.6-0.6
		c2.1-0.5,4.1-1.3,5.9-2.6c1.9-1.3,3.4-2.8,4.7-4.8c1.3-1.9,2.2-4.2,2.6-6.8c0.4-2.6,0.3-5.5-0.4-8.6c-0.7-3.3-1.9-6-3.5-8.1
		c-1.6-2.1-3.5-3.8-5.7-4.9c-2.2-1.1-4.6-1.8-7.1-1.9c-2.5-0.2-5.1,0-7.7,0.6c-2.1,0.5-4,1.1-5.6,2c0,0.7,0.2,1.8,0.4,3.1
		c0.2,1.3,0.5,2.9,0.8,4.7C144.5,37.6,144.7,38.9,144.9,39.8z M147.2,25.2l0.1,0.3c2.7-0.6,5.2-0.9,7.5-1c2.3,0,4.2,0.2,5.9,0.7
		c1.7,0.5,3.1,1.1,4.4,1.9c1.4,0.9,2.6,1.9,3.7,3.2c1.1,1.3,2.1,2.7,3,4.4c0.9,1.7,1.5,3.5,2,5.4c1,4.4,0.9,8.2-0.3,11.6
		c-1.2,3.4-3,6.1-5.4,8.1s-4.9,3.3-7.3,3.8l-2.1,0.5l0.1,0.3l2.1-0.5c4.1-0.9,7.4-2.6,10-5.1c2.6-2.5,4.3-5.4,5.1-8.8
		c0.8-3.4,0.9-6.8,0.1-10.3c-0.7-3.1-1.9-5.8-3.5-8c-1.7-2.2-3.5-3.9-5.5-5.2c-4.4-2.8-10.4-3.4-18-1.7L147.2,25.2z"/>
</g>
<g class="st3">
	<path class="st2" d="M185.9,17l23.7,2.6c4.4,0.5,8.1,1.5,11,3.2c3,1.6,5.2,3.6,6.8,5.8c1.6,2.3,2.6,4.6,3.1,7.1
		c0.5,2.5,0.6,5,0.4,7.5c-0.3,3-1.1,5.8-2.4,8.3c-1.3,2.5-3,4.6-5.1,6.3c-2.1,1.7-4.5,2.9-7.2,3.7c-2.7,0.7-5.5,0.9-8.6,0.6
		l-26.5-2.9l0-0.3l7.1-0.2c0.5-1.6,1.1-4.3,1.7-8c0.6-3.7,1-6.7,1.3-8.8l0.8-7.5c0.6-5.6,0.9-10.6,0.9-15l-7-1.9L185.9,17z
		 M194.5,19.1L190.1,59l2,0.2l4.4-39.9L194.5,19.1z M198,33l-1.9,16.8c-0.3,2.5-0.4,5-0.4,7.6c1.2,0.7,2.5,1.3,4,1.7
		s3.1,0.7,4.6,0.9c2.1,0.2,4.3,0.1,6.5-0.5c2.2-0.6,4.2-1.6,6.1-3c1.9-1.4,3.4-3.3,4.7-5.6c1.3-2.4,2.1-5.1,2.5-8.3
		c0.4-3.3,0.2-6.3-0.7-8.9s-2.1-4.7-3.8-6.5s-3.8-3.2-6.1-4.2c-2.4-1-4.9-1.7-7.6-2c-2.2-0.2-4.1-0.2-5.9,0.1
		c-0.2,0.7-0.4,1.7-0.7,3.1c-0.3,1.3-0.5,2.9-0.8,4.7C198.3,30.7,198.1,32.1,198,33z M205,19.9l0,0.3c2.8,0.3,5.3,0.8,7.4,1.5
		s3.9,1.6,5.4,2.6s2.6,2.1,3.6,3.3c1,1.3,1.8,2.7,2.5,4.2c0.7,1.6,1.1,3.3,1.4,5.1s0.3,3.8,0.1,5.8c-0.5,4.5-1.9,8.1-4.1,10.9
		c-2.3,2.8-4.9,4.8-7.8,5.9c-3,1.1-5.7,1.5-8.2,1.2l-2.2-0.2l0,0.3l2.2,0.2c4.2,0.5,7.9-0.1,11.2-1.5c3.3-1.5,5.8-3.7,7.8-6.6
		c1.9-2.9,3.1-6.2,3.5-9.8c0.4-3.2,0.1-6.2-0.7-8.8c-0.8-2.6-2-4.9-3.5-6.8c-3.2-4.1-8.7-6.6-16.5-7.5L205,19.9z"/>
</g>
<g class="st3">
	<path class="st2" d="M241.6,26.7l-5-3.2l0.1-0.3l20.7,8.8l-0.1,0.3l-8.4-2.4c0.1,3.1,0.5,6.9,1.1,11.3c0.7,4.4,1.4,8.1,2.2,11
		c2.7-1.3,6.2-3.2,10.3-5.9c4.1-2.6,7.3-4.8,9.5-6.6l-7.4-4.2l0.1-0.3l15.5,6.6l-0.1,0.3l-5-1.1c-1.6,0.8-3.1,1.6-4.7,2.5
		c-1.5,0.9-3.5,2.1-6,3.7c-2.5,1.5-4.4,2.8-5.9,3.7c-1.4,0.9-3.6,2.4-6.6,4.4c-1.1,2.1-2.2,4.5-3.3,7.2c-1.5,3.7-2.5,6.7-2.9,9.2
		l6.2,3.7l-0.1,0.3l-20.2-8.6l0.1-0.3l6.9,1.8c0.8-1,1.6-2.4,2.6-4.3s1.8-3.6,2.6-5.4c0.5-1.3,1.3-3.3,2.4-6.1
		c-0.2-2.3-0.6-5.1-1.1-8.4s-1.1-6.5-1.7-9.7C242.9,31.7,242.3,28.9,241.6,26.7z M240.4,69.5l1.8,0.8l7.1-16.6l-4.1-25.7l-1.9-0.8
		l4.1,25.9L240.4,69.5z"/>
</g>
<g class="st3">
	<path class="st2" d="M277.9,55.3l-0.1-0.4c1.9-0.4,3.4-1.3,4.5-2.7c-0.9-0.6-1.4-1.4-1.6-2.3c-0.2-0.9,0-1.8,0.5-2.5
		c0.5-0.8,1.3-1.4,2.2-1.6c0.9-0.2,1.8-0.1,2.7,0.5c1,0.7,1.5,1.5,1.5,2.6s-0.3,2-0.8,2.8c-1.1,1.6-2.5,2.7-4.2,3.2
		C281,55.3,279.4,55.4,277.9,55.3z M282.8,51.5l2.8-4.4c-1.5-0.8-2.7-0.5-3.6,0.8c-0.4,0.6-0.5,1.2-0.4,1.8
		C281.8,50.4,282.2,51,282.8,51.5z"/>
</g>
<g class="st3">
	<path class="st2" d="M274.1,77.2l-3,6.8c0.5,1.1,1.2,2.2,2.1,3.4c0.9,1.2,1.8,2.1,2.6,2.8c1.1,0.9,2.3,1.6,3.5,2
		c1.2,0.4,2.4,0.6,3.5,0.5c1.1-0.1,2.1-0.4,3-0.9s1.7-1.1,2.3-1.8c1.2-1.5,1.8-3.1,1.7-4.9c-0.1-1.8-0.7-4.5-1.7-8.1
		s-1.5-6.3-1.7-8.2c-0.1-1.7,0-3.2,0.4-4.5c0.4-1.3,1-2.5,2-3.7c1.1-1.3,2.5-2.2,4.3-2.9c1.8-0.7,3.7-0.8,5.9-0.4
		c2.1,0.4,4.3,1.5,6.4,3.3c1,0.8,1.9,1.7,2.9,2.7c1,1,1.7,1.7,2.1,2c0.4,0.3,0.7,0.6,1,0.8c0.3,0.3,0.6,0.5,0.8,0.6
		c0.2,0.1,0.4,0.3,0.6,0.4l-6.3,7.6l-0.3-0.2l3-6.3c-1.3-2.6-2.7-4.6-4.2-5.9c-1.3-1.1-2.6-1.8-4-2.2s-2.8-0.4-4,0
		c-1.3,0.4-2.3,1-3.2,2.1c-0.9,1.1-1.4,2.4-1.4,3.9c0,1.5,0.2,3.3,0.8,5.3s1.2,4.1,1.8,6.3s1.1,4.2,1.2,5.9c0.3,3.2-0.6,6-2.6,8.3
		c-1.1,1.3-2.6,2.3-4.4,3.1c-1.8,0.8-4,1-6.4,0.6c-2.4-0.4-4.9-1.7-7.4-3.9c-0.9-0.8-1.9-1.7-3.1-2.9s-2.1-2.1-2.7-2.6
		c-0.3-0.2-0.5-0.4-0.7-0.5c-0.2-0.1-0.4-0.3-0.8-0.5c-0.3-0.2-0.6-0.4-0.6-0.4l6.3-8L274.1,77.2z M305.8,62l-0.7-0.6
		c-1.6-1.4-3.4-2.3-5.3-2.9c-1.9-0.5-3.8-0.5-5.6,0c-1.8,0.5-3.4,1.5-4.6,3c-1.6,1.9-2.3,4.3-2,7.3c0.1,1.3,0.3,2.5,0.5,3.5
		c0.2,1,0.6,2.5,1.1,4.4c0.5,1.9,0.9,3.5,1.2,4.7c0.3,1.2,0.5,2.2,0.5,3.2c0.2,2.4-0.4,4.5-1.8,6.1c-1,1.1-2.2,1.9-3.7,2.4
		s-3.1,0.6-4.8,0.3c-1.7-0.3-3.3-1.2-4.9-2.5l-0.2,0.2c1.7,1.6,3.6,2.6,5.6,3.1c2,0.5,3.8,0.5,5.5,0c1.7-0.5,3.1-1.3,4.1-2.5
		c0.9-1,1.5-2.1,1.9-3.3c0.4-1.1,0.5-2.5,0.4-4.2c-0.1-1-0.4-2.5-0.9-4.5s-1.1-4.1-1.7-6.2c-0.6-2.1-0.9-3.7-1-4.9
		c-0.2-2.8,0.4-5.2,2-7c1.4-1.6,3.4-2.5,6-2.7c2.6-0.2,5.3,0.9,8.2,3.2L305.8,62z"/>
</g>
</svg>
