<?xml version="1.0" encoding="utf-8"?>
<!-- Generator: Adobe Illustrator 19.1.0, SVG Export Plug-In . SVG Version: 6.00 Build 0)  -->
<svg version="1.1" id="Layer_1" xmlns="http://www.w3.org/2000/svg" xmlns:xlink="http://www.w3.org/1999/xlink" x="0px" y="0px"
	 viewBox="0 0 600 600" style="enable-background:new 0 0 600 600;" xml:space="preserve">
<style type="text/css">
	.st0{fill:#FFFFFF;}
	.st1{fill:#EA3030;}
	.st2{fill:none;}
</style>
<circle cx="313.5" cy="290.7" r="271.3"/>
<circle class="st0" cx="313.5" cy="290.7" r="260.3"/>
<circle cx="313.5" cy="290.7" r="252"/>
<circle class="st0" cx="313.5" cy="290.7" r="180.4"/>
<circle cx="313.5" cy="290.7" r="174.9"/>
<circle class="st0" cx="313.5" cy="290.7" r="171.3"/>
<g>
	<g id="star-rate">
		<polygon class="st1" points="313.5,351.4 406.6,419.3 371.4,308.6 464.5,243.2 351.3,243.2 313.5,129.9 275.8,243.2 162.5,243.2 
			255.6,308.6 220.4,419.3 		"/>
	</g>
</g>
<g>
	<g>
		<polygon class="st0" points="339.6,241.9 339.6,238.1 315.2,286 320.7,297.2 		"/>
		<path class="st0" d="M305.1,302.4l-22.2,23.9c-0.5-0.1-1-0.1-1.5-0.1c-6.6-0.1-12.7,5.1-14.5,12.3c-1,4-0.6,8.2,1.1,11.7
			c1.8,3.6,4.8,6.1,8.4,7c0.9,0.2,1.8,0.4,2.8,0.4l0,0c5,0.1,9.8-2.9,12.5-7.6c0.3,0.1,0.6,0.2,1,0.2c1.9,0,3.5-1.5,3.6-3.5
			c0-1.5-0.9-2.8-2.3-3.3c0.5-3.4,0-6.8-1.5-9.8c-1-2-2.4-3.7-4-4.9l19.2-18L305.1,302.4z M288.8,335.4c1.3,2.6,1.6,5.7,0.8,8.8
			c-1.3,5.4-5.7,9.2-10.3,9.1c-0.6,0-1.2-0.1-1.8-0.2c-2.4-0.6-4.4-2.3-5.7-4.8c-1.3-2.6-1.6-5.7-0.8-8.8c1.3-5.4,5.7-9.2,10.3-9.1
			c0.6,0,1.2,0.1,1.8,0.2C285.6,331.3,287.6,333,288.8,335.4z"/>
		<path class="st0" d="M368.8,356.8c-0.5-0.8-10.3-5.3-10.5-10.6c0.2-1.9,0.2-3.9-0.3-5.9c-1.6-7.3-7.5-12.7-14-12.9
			c-0.2,0-0.4,0-0.5,0l-24.6-27.7L288.1,238l0.7,5.4l20.6,64.4l7.6,0.3l19.2,21.9c-1.4,1.1-2.6,2.6-3.6,4.3
			c-1.9,3.4-2.4,7.6-1.6,11.6c1.6,7.3,7.5,12.7,14,12.9c0.9,0,1.9-0.1,2.8-0.3c2-0.4,3.9-1.4,5.5-2.7c5.2-2,10.4,2.8,11.9,3.4
			C366.7,359.7,369.4,357.6,368.8,356.8z M313.4,303.9c-1.2,0-2.2-1-2.2-2.3c0-1.2,1-2.2,2.3-2.2c1.2,0,2.2,1,2.2,2.2
			C315.6,303,314.6,304,313.4,303.9z M352.8,349.8c-1.3,2.4-3.4,4.1-5.8,4.6c-0.6,0.1-1.2,0.2-1.8,0.2c-4.6-0.1-8.8-4.1-10-9.5
			c-0.7-3.1-0.3-6.2,1.1-8.7c1.3-2.4,3.4-4.1,5.8-4.6c0.6-0.1,1.2-0.2,1.8-0.2c4.6,0.1,8.8,4.1,10,9.5
			C354.6,344.2,354.2,347.3,352.8,349.8z"/>
	</g>
</g>
<path id="SVGID_x5F_1_x5F_" class="st2" d="M316.1,463.4c-106.8,2.5-195.3-77-197.6-177.5s82.3-184,189.1-186.5
	c106.8-2.5,195.3,77,197.6,177.5S422.9,460.9,316.1,463.4z"/>
<text><textPath  xlink:href="#SVGID_x5F_1_x5F_" startOffset="53.8411%">
<tspan  class="st0" style="font-family:'ImprintMT-Shadow'; font-size:64.5109px;">EDDY’S</tspan></textPath>
</text>
<path id="SVGID_x5F_2_x5F_" class="st2" d="M481.3,369.4c-43.9,91.5-153.7,130-245.2,86.1s-130-153.7-86.1-245.2
	s153.7-130,245.2-86.1S525.3,277.9,481.3,369.4z"/>
<text><textPath  xlink:href="#SVGID_x5F_2_x5F_" startOffset="52.1525%">
<tspan  class="st0" style="font-family:'ImprintMT-Shadow'; font-size:65.6998px;">ON COVENTRY</tspan></textPath>
</text>
</svg>
