<?xml version="1.0" encoding="utf-8"?>
<!-- Generator: Adobe Illustrator 19.1.0, SVG Export Plug-In . SVG Version: 6.00 Build 0)  -->
<svg version="1.1" id="Layer_1" xmlns="http://www.w3.org/2000/svg" xmlns:xlink="http://www.w3.org/1999/xlink" x="0px" y="0px"
	 viewBox="0 0 600 600" style="enable-background:new 0 0 600 600;" xml:space="preserve">
<style type="text/css">
	.st0{fill:#FFFFFF;}
	.st1{fill:#CF404D;}
</style>
<circle class="st0" cx="300" cy="300" r="279.4"/>
<circle cx="300" cy="300" r="270.5"/>
<circle class="st0" cx="300" cy="300" r="180.4"/>
<circle cx="300" cy="300" r="174.9"/>
<circle class="st0" cx="300" cy="300" r="168"/>
<g>
	<g id="star-rate">
		<polygon class="st1" points="300,360.7 393.1,428.7 357.9,317.9 451,252.5 337.8,252.5 300,139.2 262.2,252.5 149,252.5 
			242.1,317.9 206.9,428.7 		"/>
	</g>
</g>
<g>
	<g>
		<polygon class="st0" points="326,251.2 326.1,247.5 301.6,295.4 307.2,306.5 		"/>
		<path class="st0" d="M291.6,311.7l-22.2,23.9c-0.5-0.1-1-0.1-1.5-0.1c-6.6-0.1-12.7,5.1-14.5,12.3c-1,4-0.6,8.2,1.1,11.7
			c1.8,3.6,4.8,6.1,8.4,7c0.9,0.2,1.8,0.4,2.8,0.4l0,0c5,0.1,9.8-2.9,12.5-7.6c0.3,0.1,0.6,0.2,1,0.2c1.9,0,3.5-1.5,3.6-3.5
			c0-1.5-0.9-2.8-2.3-3.3c0.5-3.4,0-6.8-1.5-9.8c-1-2-2.4-3.7-4-4.9l19.2-18L291.6,311.7z M275.3,344.8c1.3,2.6,1.6,5.7,0.8,8.8
			c-1.3,5.4-5.7,9.2-10.3,9.1c-0.6,0-1.2-0.1-1.8-0.2c-2.4-0.6-4.4-2.3-5.7-4.8c-1.3-2.6-1.6-5.7-0.8-8.8c1.3-5.4,5.7-9.2,10.3-9.1
			c0.6,0,1.2,0.1,1.8,0.2C272,340.6,274,342.3,275.3,344.8z"/>
		<path class="st0" d="M355.3,366.1c-0.5-0.8-10.3-5.3-10.5-10.6c0.2-1.9,0.2-3.9-0.3-5.9c-1.6-7.3-7.5-12.7-14-12.9
			c-0.2,0-0.4,0-0.5,0L305.4,309l-30.7-61.7l0.7,5.4l20.6,64.4l7.6,0.3l19.2,21.9c-1.4,1.1-2.6,2.6-3.6,4.3
			c-1.9,3.4-2.4,7.6-1.6,11.6c1.6,7.3,7.5,12.7,14,12.9c0.9,0,1.9-0.1,2.8-0.3c2-0.4,3.9-1.4,5.5-2.7c5.2-2,10.4,2.8,11.9,3.4
			C353.2,369.1,355.8,366.9,355.3,366.1z M299.8,313.3c-1.2,0-2.2-1-2.2-2.3c0-1.2,1-2.2,2.3-2.2c1.2,0,2.2,1,2.2,2.2
			C302.1,312.3,301,313.3,299.8,313.3z M339.3,359.2c-1.3,2.4-3.4,4.1-5.8,4.6c-0.6,0.1-1.2,0.2-1.8,0.2c-4.6-0.1-8.8-4.1-10-9.5
			c-0.7-3.1-0.3-6.2,1.1-8.7c1.3-2.4,3.4-4.1,5.8-4.6c0.6-0.1,1.2-0.2,1.8-0.2c4.6,0.1,8.8,4.1,10,9.5
			C341.1,353.5,340.7,356.6,339.3,359.2z"/>
	</g>
</g>
</svg>
