<?xml version="1.0" encoding="utf-8"?>
<!-- Generator: Adobe Illustrator 19.1.0, SVG Export Plug-In . SVG Version: 6.00 Build 0)  -->
<svg version="1.1" id="Layer_1" xmlns="http://www.w3.org/2000/svg" xmlns:xlink="http://www.w3.org/1999/xlink" x="0px" y="0px"
	 viewBox="0 0 576 576" style="enable-background:new 0 0 576 576;" xml:space="preserve">
<style type="text/css">
	.st0{fill:#020000;}
	.st1{fill:#FFFFFF;}
	.st2{fill:#FF0000;}
</style>
<g>
	<circle class="st0" cx="289.5" cy="288.5" r="215.5"/>
	<circle class="st1" cx="290" cy="288" r="207"/>
	<circle cx="289.8" cy="288.2" r="197.8"/>
	<circle class="st1" cx="289.3" cy="289.3" r="131.3"/>
	<circle cx="289.3" cy="289.3" r="126.7"/>
	<circle class="st1" cx="289.7" cy="289.3" r="121.3"/>
	<g>
		<path class="st2" d="M399,252.8c-10.5,7.9-32.2,24.5-65.1,49.7c2.8,8.7,6.8,21.8,12.2,39.3c5.3,17.5,9.3,30.5,12,39.1l-67.6-46.3
			c0.4,0-22,15.4-67.2,46.3c15.5-50.6,23.3-76.5,23.3-77.8c0-0.1-21.8-16.7-65.5-49.8l74.6-1.9c4.2-0.1,6.6-0.2,7.3-0.2
			c5.5-15.8,14.5-41.6,26.8-77.4c10.8,30.1,19.9,55.7,27.2,76.9c1,0.3,2.6,0.6,4.8,0.8C340.8,251.7,366.5,252.1,399,252.8z"/>
	</g>
	<g>
		<path class="st1" d="M257.3,335.3c-4.7-2-7-7.7-5.1-12.8c1.9-5,7.3-7.4,12-5.4c4.7,2,7,7.7,5.1,12.8
			C267.4,334.9,262,337.4,257.3,335.3z"/>
		<path class="st2" d="M257.9,333.5c-3.8-1.6-5.7-6.3-4.1-10.3c1.5-4.1,5.9-6,9.7-4.4c3.8,1.6,5.7,6.3,4.1,10.3
			C266.1,333.2,261.8,335.1,257.9,333.5z"/>
		<path class="st1" d="M264,317c0,0,4.9,1.9,8.7-1.2c3.9-3,13.1-11.6,13.1-11.6l16-18.5l5.8-7c0,0,6.5-8.1,7.6-9.2
			c1.1-1.2,5.1-5.5,6.2-6.5c1.1-1,1.7-1.2,1.7-1.2s1.3-1.1-3.5,7.2c-4.9,8.3-10.2,16.8-10.2,16.8l-7.4,11.4l-2,3.3l-1.3,1.8
			l-6.2,6.5l-5.2,0.8c0,0-3.9,2.2-8.6,5.7c-4.7,3.5-4.7,3.5-4.7,3.5s-3,1.8-3.3,4c-0.3,2.1-0.6,4.4-0.6,4.4l-0.6,0.3l-1-5.2
			l-0.5-1.3l-4.2-3.1L264,317z"/>
		<path class="st1" d="M268.8,330.7l0.7,1.7l-1.3,1.4l-1.6-1.4C266.7,332.5,267.5,329.3,268.8,330.7z"/>
		<path class="st1" d="M323.9,335.1c4.7-2,7-7.7,5.1-12.8c-1.9-5-7.3-7.4-12-5.4c-4.7,2-7,7.7-5.1,12.8
			C313.7,334.7,319.1,337.1,323.9,335.1z"/>
		<path class="st2" d="M323.2,333.2c3.8-1.6,5.7-6.3,4.1-10.3c-1.5-4.1-5.9-6-9.7-4.4c-3.8,1.6-5.7,6.3-4.1,10.3
			C315,332.9,319.4,334.9,323.2,333.2z"/>
		<path class="st1" d="M317.2,316.8c0,0-4.9,1.9-8.7-1.2S295.4,304,295.4,304l-16-18.5l-5.8-7c0,0-6.5-8.1-7.6-9.2
			c-1.1-1.2-5.1-5.5-6.2-6.5c-1.1-1-1.7-1.2-1.7-1.2s-1.4-1.1,3.5,7.2c4.9,8.3,10.2,16.8,10.2,16.8l7.4,11.4l2,3.3l1.3,1.8l6.2,6.5
			l5.2,0.8c0,0,3.9,2.2,8.6,5.7c4.7,3.5,4.7,3.5,4.7,3.5s3,1.8,3.3,4c0.3,2.2,0.6,4.4,0.6,4.4l0.6,0.3l1-5.2l0.5-1.3l4.2-3.1
			L317.2,316.8z"/>
		<path class="st1" d="M325.8,333.3c0,0,1.8-0.5,2.7,0.5c0.9,1,2.5,1.7,4.6,2.6c2.1,0.9,3.3,0.8,3.6,0.7c0.3-0.1,1.7-1.2-0.1-1.2
			c-1.8,0.1-2.2-0.3-3.3-0.8c-1.1-0.5-2.4-1.1-2.8-2.1c-0.4-1.1-1.3-2.4-1.2-5.3c0.2-2.9-1.3,2.5-1.3,2.5l-1.2,1.5L325.8,333.3z"/>
	</g>
	<g>
		<path class="st1" d="M188.7,158.6l8.2,11.6c0.9,1.3,1.7,2.2,2.4,2.8c0.7,0.6,1.4,0.9,2.1,0.9c0.7,0,1.6-0.3,2.6-0.9
			c1-0.6,2.3-1.4,3.9-2.5c1.9-1.4,3.5-2.9,4.6-4.6c1.1-1.7,1.9-3.6,2.5-5.7c0.5-2.1,0.9-4.7,1.2-7.8l2.1-1.5l3.5,11.8l-32.4,23
			l-1-1.4c1.5-1.1,2.6-2.1,3.3-2.9c0.6-0.8,0.9-1.6,0.9-2.4c-0.1-0.8-0.4-1.7-1.2-2.7l-18.5-26c-0.9-1.2-1.7-2-2.4-2.4
			c-0.7-0.3-1.5-0.3-2.4,0c-0.9,0.3-2.2,1.1-4,2.2l-1-1.4l31.1-22.1l9.1,6.1l-1.9,1.3c-1.9-0.6-4-0.9-6.2-0.9c-2.2,0-4.4,0.3-6.7,1
			c-2.3,0.7-4.4,1.7-6.4,3.1c-1.6,1.1-2.7,2.2-3.2,3.1c-0.6,0.9-0.8,1.8-0.6,2.6c0.2,0.8,0.6,1.7,1.3,2.7l8.2,11.5l5.3-3.7
			c4.6-3.3,5.4-7,2.5-11.3l1.8-1.3l9.9,13.9l-1.6,1.1c-1.7-2-3.4-3.1-5.1-3.4c-1.7-0.3-3.5,0.3-5.6,1.7L188.7,158.6z M173.9,149.8
			l18,25.5c0.9,1.3,1.4,2.3,1.5,3.1s0,1.6-0.3,2.5c1.4-1,2.1-2.1,2-3.1c-0.1-1-0.7-2.4-1.9-4.1l-18.1-25.5c-1.1-1.5-2-2.3-2.9-2.4
			c-0.9-0.1-1.9,0.3-3.3,1.1c0.9-0.1,1.7,0,2.4,0.4C172.2,147.7,173,148.6,173.9,149.8z M192.6,129.8l-4.7,3.4
			c1.6-0.5,3.2-0.8,4.6-0.9c1.4-0.1,3-0.1,4.8-0.1L192.6,129.8z M201.8,151.9l-3.6-5.1c0.1,1.7-0.5,3.4-1.9,5.2
			c1.1-0.4,2.1-0.7,3-0.7C200.1,151.3,200.9,151.5,201.8,151.9z M218,163.3l-1.4-5.9c-0.2,1.9-0.6,3.4-1,4.5
			c-0.5,1.1-1.2,2.7-2.1,4.6L218,163.3z"/>
		<path class="st1" d="M249.8,152.6l-24.5,7.3l-0.5-1.7c1.7-0.6,3-1.1,3.8-1.6c0.8-0.5,1.3-1.2,1.4-2c0.2-0.8,0-1.9-0.4-3.3
			l-9.2-31.1c-0.5-1.5-1.3-2.4-2.4-2.7c-1.1-0.2-2.8-0.1-5.1,0.4l-0.5-1.7l25.5-7.6c3.3-1,6.5-1.3,9.7-1.1c3.1,0.3,6,1.1,8.6,2.5
			c2.6,1.4,4.8,3.3,6.7,5.7c1.9,2.4,3.3,5.2,4.2,8.3c0.9,3.1,1.2,6.1,0.8,9c-0.3,3-1.3,5.7-2.8,8.3c-1.5,2.6-3.6,4.8-6.2,6.8
			C256.4,150.1,253.3,151.6,249.8,152.6z M232.7,150.6l-8.5-28.6c-0.7-2.5-1.5-4.1-2.2-5c-0.7-0.9-2.1-1-3.9-0.5
			c1,0.2,1.8,0.6,2.3,1.2c0.5,0.6,0.9,1.6,1.3,3l8.8,29.8c0.4,1.3,0.6,2.3,0.7,3.1c0.1,0.8,0,1.4-0.2,1.8c-0.2,0.5-0.5,0.9-1,1.4
			c1.5-0.5,2.5-1.2,2.9-2.1C233.2,153.7,233.2,152.3,232.7,150.6z M229.6,122.7l7.4,25c0.5,1.8,1,3.1,1.5,3.8
			c0.5,0.7,1.3,1.2,2.3,1.3c1,0.1,2.6-0.1,4.7-0.7c2.2-0.7,4.2-1.5,5.8-2.5c1.6-1,3.1-2.3,4.4-3.9c1.5-1.9,2.5-3.8,3.1-5.7
			s0.9-3.9,0.7-6.1c-0.1-2.2-0.5-4.5-1.3-7c-2.2-7.4-6-12.2-11.4-14.6c-2.1-1-4.4-1.4-6.6-1.4c-2.3,0-4.8,0.4-7.6,1.3
			c-1.9,0.6-3.2,1.3-3.8,2.1c-0.6,0.8-0.9,1.8-0.7,2.9C228.3,118.1,228.8,120,229.6,122.7z M253.3,149.8c2.6-1,4.7-2.7,6.3-4.8
			c1.6-2.2,2.7-4.9,3-8.1c0.4-3.2,0-6.8-1.2-10.8c-0.8-2.8-1.9-5.4-3.2-7.5c-1.3-2.2-2.8-4-4.4-5.4c-1.7-1.4-3.5-2.4-5.4-3
			c-1.1-0.4-2.3-0.5-3.4-0.6c-1.1,0-2.3,0-3.6,0.2c8.9,0.8,14.9,6.5,18,17.1c0.9,3.2,1.4,6.2,1.3,8.9c-0.1,2.7-0.8,5.3-2,7.6
			C257.5,145.7,255.7,147.8,253.3,149.8z"/>
		<path class="st1" d="M301,147.5l-25.5-2l0.1-1.7c1.8,0.1,3.2,0,4.1-0.2c0.9-0.2,1.6-0.6,2-1.3c0.4-0.7,0.7-1.8,0.8-3.2l2.5-32.4
			c0.1-1.6-0.3-2.7-1.3-3.3c-1-0.6-2.6-1.1-4.9-1.4l0.1-1.7l26.6,2.1c3.5,0.3,6.6,1.1,9.4,2.4c2.8,1.4,5.2,3.2,7.1,5.4
			c1.9,2.2,3.4,4.8,4.3,7.7c0.9,2.9,1.3,6,1,9.3c-0.2,3.2-1.1,6.1-2.4,8.8c-1.4,2.6-3.2,4.9-5.6,6.7c-2.3,1.8-5.1,3.2-8.2,4.1
			C308,147.5,304.6,147.8,301,147.5z M285.7,139.5l2.3-29.7c0.2-2.6,0.1-4.4-0.3-5.4c-0.4-1.1-1.5-1.7-3.5-1.9
			c0.9,0.5,1.5,1.2,1.7,1.9c0.2,0.7,0.3,1.8,0.2,3.2l-2.4,31c-0.1,1.3-0.3,2.4-0.5,3.1c-0.2,0.7-0.5,1.3-0.8,1.7
			c-0.3,0.4-0.8,0.7-1.5,0.9c1.6,0.1,2.8-0.2,3.4-0.9C285.1,142.5,285.6,141.3,285.7,139.5z M292.8,112.3l-2,26
			c-0.1,1.9-0.1,3.2,0.1,4.1c0.2,0.9,0.8,1.5,1.7,2c0.9,0.5,2.5,0.8,4.7,1c2.3,0.2,4.4,0.1,6.3-0.2c1.9-0.3,3.7-1,5.5-2.1
			c2.1-1.3,3.7-2.7,5-4.2c1.2-1.6,2.2-3.4,2.9-5.4c0.7-2.1,1.1-4.4,1.3-6.9c0.6-7.7-1.2-13.6-5.4-17.7c-1.7-1.7-3.6-2.9-5.7-3.7
			c-2.1-0.8-4.6-1.3-7.6-1.6c-2-0.2-3.5,0-4.3,0.6c-0.9,0.5-1.4,1.3-1.7,2.4C293.3,107.6,293,109.5,292.8,112.3z M305.3,146.1
			c2.8-0.1,5.3-0.8,7.6-2.3c2.3-1.4,4.2-3.6,5.7-6.5c1.5-2.9,2.4-6.4,2.7-10.5c0.2-3,0.1-5.7-0.3-8.2c-0.4-2.5-1.2-4.7-2.2-6.6
			c-1-1.9-2.4-3.5-4-4.7c-0.9-0.7-1.9-1.3-3-1.8c-1-0.4-2.2-0.8-3.4-1.1c8,3.9,11.6,11.4,10.7,22.5c-0.3,3.3-0.9,6.2-2,8.8
			c-1.1,2.5-2.6,4.6-4.6,6.4C310.7,143.8,308.2,145.1,305.3,146.1z"/>
		<path class="st1" d="M372.2,122.5l0.7-1.6l13.2,5.8l-0.7,1.6c-0.9-0.3-2-0.3-3.1,0c-1.2,0.2-2.5,0.8-4,1.6
			c-1.5,0.8-3.1,1.9-4.9,3.2l-15.3,11.1l-4.7,10.6c-0.8,1.9-0.9,3.3-0.2,4.2c0.7,0.9,2.2,1.9,4.5,3.1l-0.7,1.6l-20-8.7l0.7-1.6
			l0.5,0.2c1.7,0.8,3.1,1.1,4.1,1c1-0.1,1.8-0.4,2.3-1c0.5-0.6,1-1.5,1.5-2.6l3.8-8.6l-3.3-26.7c-0.2-1.6-0.5-2.8-0.8-3.7
			c-0.4-0.9-1.4-1.7-3-2.3l0.7-1.6l19.5,8.5l-0.7,1.6c-1.8-0.7-3.2-1.2-4.3-1.4c-1.1-0.2-1.9,0.3-2.3,1.3c-0.4,0.8-0.4,2.7,0,5.7
			l2.3,18l9.9-7.1c1.8-1.3,3.2-2.5,4.3-3.5c1-1,1.8-2.1,2.3-3.2c0.4-1,0.5-2,0.1-3.1c-0.4-1.1-1.1-1.8-2.2-2.3L372.2,122.5z
			 M353.3,142.8l-3.2-26.1c-0.2-1.7-0.4-2.9-0.8-3.5c-0.3-0.6-0.9-1.1-1.8-1.5l-0.9-0.4c0.4,0.4,0.7,1,0.8,1.6
			c0.1,0.6,0.3,1.6,0.4,2.9l3.3,26.7l-4.5,10.2c-0.5,1.1-1,1.8-1.6,2.1c-0.6,0.3-1.5,0.5-2.8,0.5l1.3,0.6c1.2,0.5,2.2,0.6,3,0.2
			c0.8-0.4,1.4-1.2,1.9-2.5L353.3,142.8z M375.7,128.3l-0.3,0.7c1-0.8,1.8-1.4,2.5-1.8c0.7-0.3,1.6-0.7,2.7-1l-5.2-2.3
			C376.3,125.2,376.4,126.6,375.7,128.3z"/>
		<path class="st1" d="M383.6,150.4l1.2-1.6c1.4,0.2,2.7,0.2,4-0.2c1.3-0.3,2.3-1,3-2c0.5-0.8,0.8-1.6,0.9-2.5
			c0.1-0.9,0-1.9-0.2-3.1c-0.2-1.4-0.3-2.5-0.3-3.2c0-0.7,0.2-1.4,0.7-2c0.6-0.8,1.4-1.3,2.5-1.4c1.1-0.2,2.1,0.1,3,0.7
			c0.8,0.6,1.4,1.4,1.7,2.5c0.3,1.1,0.4,2.3,0.1,3.7c-0.3,1.4-0.8,2.7-1.7,4c-1.6,2.3-3.7,3.9-6.2,4.7
			C389.7,150.9,386.8,151,383.6,150.4z M390.2,149.2c2-0.6,3.5-1.7,4.5-3.1c0.8-1.1,1.2-2.1,1.2-3c-0.2-2.7-0.4-4.4-0.4-4.8
			c0-0.5,0.1-0.8,0.3-1.1c0.5-0.7,1.2-1,2.2-0.9l-0.6-0.4c-0.7-0.5-1.4-0.7-2-0.5c-0.7,0.2-1.2,0.5-1.6,1c-0.2,0.3-0.4,0.8-0.5,1.2
			c-0.1,0.5,0,1.1,0,1.8c0.1,0.7,0.2,1.3,0.3,1.7c0.4,2.6,0.1,4.5-0.8,5.8C392.4,147.6,391.5,148.3,390.2,149.2z"/>
		<path class="st1" d="M392.6,167.7l1.5,1.5c-1.6,3.2-2.7,6.2-3.2,9c-0.5,2.8-0.5,5.3,0.1,7.5c0.6,2.2,1.6,4.1,3.1,5.6
			c1.9,1.9,4.1,3,6.6,3.2c2.5,0.2,4.7-0.6,6.6-2.4c1.8-1.7,2.7-3.5,2.8-5.4c0.1-1.9-0.3-3.6-1.1-5.3c-0.8-1.6-2.1-3.7-3.7-6.1
			c-1.7-2.4-2.8-4.2-3.3-5.3c-0.8-1.8-1.3-3.6-1.4-5.3c-0.1-1.7,0.2-3.4,0.8-5c0.7-1.6,1.6-3,2.9-4.3c1.2-1.2,2.6-2.1,4.2-2.8
			c1.6-0.7,3.2-1,4.8-1.1c1.6-0.1,3.3,0.2,4.9,0.9c1.6,0.6,3.1,1.7,4.4,3.1c1,1,2,2.4,3.2,4.1c1.1,1.7,2,2.9,2.7,3.6
			c0.8,0.8,1.7,1.5,2.8,1.9l1.7,1.8l-8.5,10.2l-1.6-1.7c1.4-4.3,2-8,1.9-11.1c-0.1-3.1-1.3-5.8-3.4-8c-1.1-1.1-2.3-1.9-3.8-2.3
			c-1.4-0.5-2.9-0.5-4.4-0.2c-1.5,0.3-2.8,1-3.9,2c-1.5,1.5-2.2,3.2-2,5c0.2,1.8,1.1,4,2.7,6.5c1.6,2.5,3,4.7,4.3,6.6
			c1.3,1.9,2.2,3.6,2.6,5c0.8,2.6,1,5.1,0.4,7.6c-0.6,2.4-1.8,4.6-3.8,6.5c-1.8,1.8-4,3-6.5,3.7c-2.5,0.7-5,0.6-7.5,0
			c-2.5-0.7-4.8-2-6.7-4c-1.1-1.1-1.8-2.1-2.2-2.8c-0.4-0.7-1-2-1.9-3.9c-0.9-1.9-1.6-3.2-2.4-3.9c-1.2-1.2-2.6-1.8-4.3-1.6
			l-1.3-1.3L392.6,167.7z M389,172.6l-6.2,6c1-0.1,1.8-0.1,2.3,0.1c0.5,0.2,1.2,0.7,1.9,1.6c0.1-1.1,0.2-1.9,0.3-2.4
			c0.1-0.5,0.2-1.2,0.5-2.1C388,174.9,388.5,173.9,389,172.6z M408.1,154.1c-1.4,0.9-2.5,1.7-3.2,2.4c-0.8,0.8-1.5,1.7-2.1,2.8
			c-0.6,1.1-0.9,2.2-1.2,3.5c-0.2,1.3-0.2,2.4,0,3.6c0.3,1.5,0.8,2.9,1.6,4.3c0.8,1.3,2.1,3.2,3.7,5.7c1.7,2.4,2.8,4.2,3.2,5.3
			c0.9,2,1.2,4,0.9,5.9c-0.3,1.9-1.2,3.6-2.7,5c-1.1,1.1-2.6,1.9-4.5,2.4c2.5,0,4.7-0.9,6.4-2.6c1.8-1.8,2.8-3.6,2.9-5.6
			c0.1-1.9-0.2-3.9-1-5.7c-0.8-1.9-2.2-4.2-4.1-7c-1.9-2.8-2.9-4.2-2.9-4.3c-1.6-2.8-2.2-5.4-1.9-7.9c0.3-2.5,1.4-4.6,3.2-6.4
			c0.3-0.3,0.6-0.6,0.8-0.8C407.7,154.4,407.9,154.2,408.1,154.1z M425.2,171.4l3.7-5.1c-0.7-0.3-1.2-0.8-1.7-1.3
			c-0.5-0.6-1-1.2-1.5-2.1c0.2,1,0.3,2,0.2,2.9c0,0.9-0.2,2-0.4,3.2C425.4,170.3,425.3,171,425.2,171.4z"/>
	</g>
	<g>
		<path class="st1" d="M121.4,286c1.9-0.2,3.7-0.3,5.4-0.2c1.7,0.1,3.4,0.4,5,0.9c1.6,0.5,3.1,1.2,4.6,2c1.5,0.9,2.8,1.9,3.9,3
			c1.3,1.2,2.4,2.5,3.3,4c0.9,1.5,1.6,3.1,2.2,4.8c0.6,1.8,1,3.7,1.2,5.8c0.4,3.5,0.3,6.7-0.5,9.7c-0.8,3-2.1,5.7-4,8
			c-1.8,2.3-4,4.1-6.6,5.6c-2.6,1.4-5.4,2.3-8.4,2.7c-3.3,0.4-6.4,0.2-9.3-0.6c-3-0.8-5.6-2.2-8-4.1c-2.4-1.9-4.3-4.3-5.8-7.1
			c-1.5-2.8-2.5-5.9-2.9-9.3c-0.4-3.2-0.2-6.2,0.5-9.2c0.8-2.9,2-5.5,3.8-7.8c1.8-2.3,4-4.1,6.7-5.6
			C115.2,287.3,118.1,286.4,121.4,286z M142.1,295c-2.6-3.2-5.6-5.4-9.1-6.8c-3.5-1.4-7.3-1.8-11.4-1.2c-3.4,0.4-6.5,1.4-9.1,2.9
			c-2.7,1.5-4.9,3.5-6.6,6c-1.7,2.5-2.9,5.5-3.6,9c1.6-4.3,4-7.9,7.3-10.8c3.3-2.9,7.6-4.6,12.9-5.3c2.6-0.3,5-0.3,7.2,0
			c2.2,0.4,4.3,1,6.3,2.1C137.9,292,140,293.3,142.1,295z M125.8,294.1c-3.6,0.5-6.9,1.3-9.8,2.4c-2.9,1.1-5.4,2.5-7.4,4.2
			c-2,1.7-3.5,3.5-4.4,5.6c-0.9,2-1.2,4.2-0.9,6.3c0.2,1.9,0.9,3.6,1.9,5.1c1,1.6,2.4,2.9,4.2,3.9c1.8,1.1,3.9,1.8,6.3,2.2
			c2.4,0.4,5.2,0.4,8.3,0c3.4-0.4,6.5-1.2,9.3-2.4c2.8-1.2,5.1-2.6,6.9-4.3c1.8-1.7,3.2-3.5,4-5.6c0.9-2.1,1.2-4.2,0.9-6.4
			c-0.2-1.9-0.9-3.6-1.9-5.2c-1-1.5-2.4-2.8-4.1-3.8c-1.7-1-3.7-1.6-5.9-2C130.9,293.8,128.5,293.7,125.8,294.1z M145.4,311
			c-0.9,2.5-2.4,4.7-4.4,6.6c-2,1.9-4.4,3.5-7.4,4.7c-2.9,1.2-6.2,2.1-9.9,2.5c-3.5,0.4-6.5,0.4-9.2-0.2c-2.7-0.6-5.1-1.6-7.2-3.1
			c1.5,1.6,3.1,2.8,4.9,3.7c1.8,0.9,3.7,1.5,5.8,1.7c2.1,0.3,4.5,0.2,7.1-0.1c3.7-0.5,7-1.4,10-2.9c3-1.4,5.4-3.3,7.1-5.5
			C144.1,316.2,145.2,313.7,145.4,311z"/>
		<path class="st1" d="M161.4,359.2l1.6-0.8l7.3,15l-1.6,0.8c-0.6-1.2-1.5-2.2-2.4-2.9c-1-0.7-2.1-1.1-3.4-1.1
			c-1.3-0.1-2.6,0.3-4,0.9l-32,16.2l-0.8-1.7l19.6-45l-22.3,11.4c-1.4,0.7-2.5,1.4-3.4,2.1c-0.9,0.7-1.5,1.4-2,2.2
			c-0.5,0.8-0.7,1.8-0.7,2.9c0,1.1,0.3,2.4,0.9,3.9l-1.6,0.8l-7.2-14.9l1.6-0.8c1.1,1.9,2.3,3.1,3.7,3.6c1.4,0.5,2.8,0.6,4.2,0.1
			c1.4-0.4,3.2-1.2,5.2-2.2l22.8-11.6c0.6-1.6,1-3.1,1.1-4.4c0.1-1.3-0.1-2.5-0.6-3.6l-0.2-0.3l1.6-0.8l5.6,11.5l-17.3,39.7l19.6-10
			c1.5-0.7,2.7-1.5,3.6-2.3c0.9-0.8,1.5-1.8,1.8-2.8c0.3-0.8,0.3-1.7,0.2-2.9C162.2,361,161.9,360,161.4,359.2z M112.6,351.7
			l2.9,5.9c0.2-1.1,0.6-2,0.9-2.6c0.4-0.6,1-1.3,1.9-2c-1,0.2-1.9,0.2-2.8,0C114.5,352.8,113.6,352.3,112.6,351.7z M131.9,380.2
			l17.2-39.6c0.4-0.8,0.7-1.8,0.9-2.7c0.2-1,0-2.1-0.7-3.4l-0.6-1.3c0.1,1.2,0.1,2.2-0.2,3.1c-0.3,0.8-0.8,2.1-1.5,3.7l-19.6,45.2
			c0.5-0.3,1.1-0.6,1.6-0.8c0.5-0.3,0.9-0.5,1.1-0.7c0.2-0.2,0.4-0.5,0.7-1C131.1,382.1,131.4,381.3,131.9,380.2z M166.2,369l-3-6.1
			c0.1,1.1,0.1,2.1-0.2,2.9c-0.3,0.9-0.8,1.7-1.6,2.6C163.3,368,164.9,368.2,166.2,369z"/>
		<path class="st1" d="M209.7,409.1l2,1.7l-9,10.6l-1.5-1.3c0.6-2.2,0.9-4.2,1.1-6.2c0.1-1.9,0.1-3.7-0.2-5.3
			c-0.3-1.6-0.8-3.1-1.5-4.4c-0.7-1.3-1.7-2.5-2.9-3.5c-1.7-1.4-3.5-2.3-5.4-2.7c-2-0.4-4-0.3-6.2,0.2c-2.1,0.6-4.3,1.6-6.5,3.1
			c-2.2,1.5-4.3,3.4-6.2,5.6c-2.7,3.1-4.5,6.4-5.5,9.7c-1,3.3-1.2,6.5-0.4,9.4c0.7,3,2.3,5.5,4.7,7.5c1.5,1.3,3.1,2.2,4.9,2.9
			c1.8,0.7,3.7,1.1,5.8,1.1c2.1,0.1,4.3-0.2,6.7-0.7l0.7,2c-4,1.1-7.8,1.2-11.4,0.3c-3.6-0.8-7.1-2.6-10.3-5.4
			c-2.5-2.2-4.5-4.6-5.9-7.3c-1.4-2.7-2.2-5.5-2.4-8.4c-0.2-2.9,0.2-5.8,1.2-8.6c1-2.8,2.5-5.4,4.5-7.7c2.2-2.5,4.6-4.5,7.4-5.9
			c2.8-1.4,5.6-2.2,8.5-2.5c2.9-0.2,5.8,0.1,8.6,1.1c2.8,0.9,5.4,2.4,7.8,4.4c0.9,0.8,1.7,1.5,2.3,2.3c0.7,0.8,1.4,1.8,2.2,3
			c0.8,1.2,1.4,2,1.7,2.4c0.3,0.4,0.7,0.8,1.2,1.2C206.7,408.9,208.1,409.3,209.7,409.1z M192.2,396c-3.3-1.2-6.2-1.7-8.9-1.8
			c-1.5,0-3.1,0.2-4.6,0.5c-1.5,0.4-3,0.9-4.4,1.6c-1.4,0.7-2.8,1.5-4.1,2.5c-1.3,1-2.5,2.1-3.5,3.3c-2.4,2.9-4.1,6-5,9.4
			c-0.9,3.4-0.8,6.9,0.1,10.5c1,3.6,2.9,6.9,5.8,10c-1.6-2.4-2.9-4.8-3.7-7.4c-0.8-2.6-1.2-5.1-1.1-7.6c0.1-2.5,0.5-5,1.4-7.3
			c0.9-2.3,2.2-4.4,3.8-6.3c1.4-1.6,3-3,5-4.3c2-1.3,4-2.2,6.1-2.8c2.4-0.6,4.5-0.9,6.4-0.9C187.7,395.5,189.9,395.7,192.2,396z
			 M203.7,414.4l3.3-4.2c-1-0.3-2-0.8-2.8-1.5c-0.4-0.3-0.7-0.7-1-1c0.3,1.3,0.4,2.5,0.5,3.5C203.7,412.2,203.7,413.3,203.7,414.4z"
			/>
		<path class="st1" d="M204.4,432.9c0.7-1.7,1.6-3.3,2.5-4.7c1-1.4,2.1-2.7,3.3-3.9c1.2-1.1,2.6-2.1,4-3c1.5-0.8,3-1.5,4.5-2
			c1.7-0.5,3.4-0.8,5.1-0.8c1.7-0.1,3.5,0.1,5.3,0.5c1.8,0.4,3.7,1,5.6,1.8c3.2,1.3,6,3.1,8.2,5.3c2.2,2.2,3.9,4.7,4.9,7.4
			c1.1,2.7,1.6,5.6,1.5,8.5c0,3-0.7,5.8-1.8,8.7c-1.3,3-3,5.6-5.2,7.8c-2.2,2.2-4.7,3.8-7.5,4.9c-2.8,1.1-5.8,1.6-9,1.5
			c-3.2-0.1-6.3-0.7-9.5-2.1c-3-1.2-5.5-2.9-7.7-5c-2.1-2.1-3.8-4.5-4.8-7.2c-1.1-2.7-1.6-5.5-1.5-8.6
			C202.4,439,203.1,435.9,204.4,432.9z M222.4,419.5c-4,0.6-7.5,2.2-10.4,4.5c-2.9,2.4-5.2,5.5-6.8,9.3c-1.3,3.2-2,6.3-2,9.4
			c0,3.1,0.6,6,2,8.7c1.3,2.8,3.3,5.3,6,7.6c-3-3.5-4.9-7.4-5.7-11.7c-0.8-4.3-0.2-8.9,1.8-13.8c1-2.5,2.2-4.5,3.6-6.3
			c1.4-1.7,3-3.2,5-4.5C217.8,421.6,220,420.4,222.4,419.5z M213.6,433.1c-1.4,3.4-2.3,6.6-2.8,9.7c-0.5,3.1-0.5,5.9,0,8.5
			c0.4,2.6,1.3,4.8,2.7,6.6c1.3,1.8,3,3.1,5,4c1.7,0.7,3.5,1,5.4,0.9c1.9-0.1,3.7-0.6,5.5-1.6c1.8-1,3.5-2.5,5-4.4
			c1.6-1.9,2.9-4.3,4.1-7.2c1.3-3.2,2.2-6.2,2.5-9.2c0.4-3,0.3-5.7-0.3-8.1c-0.5-2.4-1.5-4.5-2.9-6.3c-1.4-1.8-3.1-3.1-5.1-3.9
			c-1.8-0.7-3.6-1-5.5-0.9c-1.9,0.1-3.6,0.7-5.3,1.7c-1.7,1-3.2,2.4-4.7,4.1C215.9,428.5,214.6,430.6,213.6,433.1z M238,424.5
			c1.7,2.1,2.9,4.4,3.6,7.1c0.7,2.7,0.8,5.6,0.4,8.7c-0.4,3.2-1.3,6.4-2.7,9.8c-1.3,3.2-2.9,5.8-4.8,7.8c-1.9,2-3.9,3.6-6.3,4.7
			c2.1-0.5,4-1.3,5.6-2.4c1.7-1.1,3.1-2.5,4.4-4.2c1.3-1.7,2.4-3.8,3.4-6.2c1.4-3.5,2.3-6.8,2.5-10.1c0.2-3.3-0.2-6.3-1.2-8.9
			C241.9,428.2,240.3,426.1,238,424.5z"/>
		<path class="st1" d="M286.4,432.8l14.4,1.1l-0.1,1.7c-1.6,0-3.2,0.8-4.8,2.4c-1.6,1.6-3.2,4.2-4.8,7.6l-15.4,31.4l-1.7-0.1
			L261,437.8c-0.7-2.4-1.4-3.9-2-4.5c-0.6-0.6-1.8-1-3.6-1.2l0.1-1.7l18.8,1.5l-0.1,1.7l-0.5,0c-1.4-0.1-2.5,0.1-3.3,0.5
			c-0.8,0.4-1.2,1.1-1.3,2c0-0.1,0,0.3,0.1,1.1c0.1,0.8,0.2,1.4,0.3,1.8l9.2,28l9.8-19.9c1.4-2.8,2.1-5,2.3-6.8c0.1-1.7-0.2-3-1-4
			c-0.8-1-2-1.5-3.5-1.7L286.4,432.8z M262,437.4l12.4,37.8c0.7-1.1,1.1-1.8,1.1-2.3c0-0.5-0.2-1.4-0.7-2.7l-10.6-32.3
			c-0.5-1.4-0.9-2.5-1.2-3.2c-0.4-0.7-0.9-1.3-1.5-1.7c-0.6-0.4-1.5-0.7-2.7-0.9c0.7,0.4,1.3,0.9,1.7,1.6
			C261,434.5,261.5,435.7,262,437.4z M295.6,435.3l-6.1-0.5c1.6,1.1,2.4,2.8,2.3,5.1C292.9,437.8,294.2,436.2,295.6,435.3z"/>
		<path class="st1" d="M318.7,452.3l2.9,13.5c0.3,1.5,0.7,2.6,1.1,3.4c0.4,0.8,0.9,1.3,1.6,1.6c0.7,0.3,1.5,0.3,2.6,0.2
			c1.1-0.1,2.6-0.4,4.4-0.8c2.2-0.5,4.2-1.3,5.8-2.3c1.6-1.1,3.1-2.4,4.4-4.1c1.3-1.7,2.6-3.8,4-6.5l2.4-0.5l-1.4,11.9l-37.5,8.2
			l-0.4-1.7c1.8-0.4,3.1-0.9,4-1.4c0.9-0.5,1.5-1.1,1.7-1.8c0.3-0.7,0.3-1.7,0-2.9l-6.6-30.2c-0.3-1.4-0.7-2.4-1.2-3
			c-0.5-0.6-1.2-0.9-2.2-0.9c-0.9,0-2.4,0.1-4.4,0.4l-0.4-1.7l36-7.8l5.8,8.9l-2.2,0.5c-1.5-1.2-3.2-2.3-5.2-3.1
			c-2-0.8-4.1-1.4-6.3-1.7c-2.3-0.3-4.6-0.2-6.9,0.4c-1.9,0.4-3.2,0.9-4.1,1.5c-0.9,0.6-1.4,1.3-1.5,2.1c-0.2,0.8-0.1,1.7,0.2,2.9
			l2.9,13.3l6.2-1.3c5.4-1.2,7.6-4.2,6.6-9.1l2.2-0.5l3.5,16.2l-1.9,0.4c-0.8-2.4-1.9-4.1-3.3-5c-1.4-0.9-3.3-1.1-5.7-0.5
			L318.7,452.3z M308.9,438.9l6.4,29.5c0.3,1.5,0.4,2.6,0.2,3.4c-0.2,0.8-0.6,1.5-1.2,2.1c1.7-0.4,2.7-1.1,3-2
			c0.3-1,0.2-2.4-0.2-4.4l-6.4-29.5c-0.4-1.7-0.9-2.8-1.6-3.2c-0.7-0.4-1.8-0.5-3.3-0.2c0.8,0.2,1.5,0.7,1.9,1.3
			C308.2,436.4,308.6,437.4,308.9,438.9z M333.3,428.2l-5.6,1.2c1.6,0.2,3.1,0.5,4.5,0.9c1.3,0.5,2.8,1,4.3,1.7L333.3,428.2z
			 M333.1,451.3l-1.3-6c-0.5,1.5-1.7,2.8-3.7,3.9c1.2,0.1,2.1,0.2,2.9,0.5C331.7,450,332.4,450.5,333.1,451.3z M343.2,467.6l1-5.8
			c-0.9,1.6-1.8,2.8-2.6,3.6c-0.8,0.9-2.1,2-3.7,3.3L343.2,467.6z"/>
		<path class="st1" d="M368.7,411.2l-0.9-1.5l14.5-8.2l0.9,1.5c-1.2,0.7-2.1,1.6-2.7,2.6c-0.6,1-0.9,2.2-0.9,3.4
			c0,1.3,0.4,2.6,1.2,3.9l18.2,30.9l-1.7,0.9l-46.2-16.7l12.8,21.6c0.8,1.3,1.6,2.4,2.3,3.2c0.7,0.8,1.5,1.5,2.4,1.9
			c0.9,0.4,1.8,0.6,2.9,0.5c1.1-0.1,2.4-0.5,3.9-1.1l0.9,1.5l-14.4,8.2l-0.9-1.5c1.8-1.2,2.9-2.5,3.3-3.9c0.4-1.4,0.4-2.8-0.1-4.2
			c-0.5-1.4-1.4-3.1-2.6-5l-13-22c-1.7-0.5-3.2-0.8-4.5-0.9c-1.3,0-2.5,0.2-3.5,0.8l-0.3,0.2l-0.9-1.5l11.2-6.3l40.7,14.7
			l-11.2-18.9c-0.8-1.5-1.7-2.6-2.6-3.5c-0.9-0.9-1.9-1.4-2.9-1.6c-0.8-0.2-1.8-0.2-2.9,0C370.5,410.4,369.5,410.7,368.7,411.2z
			 M391.6,439.3l-40.7-14.6c-0.9-0.4-1.8-0.6-2.8-0.7c-1-0.1-2.1,0.2-3.4,0.9l-1.2,0.7c1.2-0.2,2.2-0.2,3.1,0
			c0.9,0.2,2.1,0.6,3.8,1.3l46.3,16.7c-0.3-0.5-0.6-1-0.9-1.5c-0.3-0.5-0.6-0.8-0.8-1c-0.2-0.2-0.6-0.4-1-0.6
			C393.5,440.1,392.7,439.7,391.6,439.3z M364.4,460.4l5.7-3.2c-1.1-0.2-2-0.4-2.6-0.8c-0.6-0.3-1.3-0.9-2.1-1.7
			c0.2,1,0.3,1.9,0.2,2.8C365.3,458.4,365,459.4,364.4,460.4z M378.2,405.8l-5.9,3.4c1.1-0.2,2.1-0.2,2.9,0c0.9,0.2,1.8,0.7,2.7,1.4
			C377.4,408.8,377.5,407.2,378.2,405.8z"/>
		<path class="st1" d="M382.5,400.4l26.8-29.2l9.1,5.3l-1.5,1.7c-3.1-0.6-5.6-0.7-7.8-0.3c-2.1,0.4-3.8,1.2-5,2.1
			c-1.2,1-2.7,2.4-4.4,4.2l26.1,24c1,0.9,1.9,1.5,2.8,1.6c0.8,0.2,1.7,0,2.5-0.6c0.9-0.6,1.9-1.5,3.2-2.7l1.3,1.2l-14.8,16.1
			l-1.3-1.2c1.2-1.4,2-2.5,2.5-3.4c0.5-0.9,0.6-1.7,0.4-2.6c-0.2-0.9-0.9-1.9-2.1-3l-25.9-23.8c-1.5,1.7-2.7,3.3-3.5,4.8
			c-0.8,1.5-1.3,2.9-1.6,4.3c-0.2,1.3-0.3,2.5-0.2,3.6c0.1,1.1,0.3,2.8,0.6,5l-1.3,1.4L382.5,400.4z M387.7,397.4l-3.4,3.7l3.1,4.5
			c-0.3-1.7-0.4-3.1-0.4-4.2C386.9,400.4,387.2,399,387.7,397.4z M421.8,411l-22.6-20.8c-0.9-0.8-1.7-1.3-2.3-1.5
			c-0.6-0.2-1.2,0-1.8,0.5l26.1,24c1,0.9,1.6,1.7,2,2.4c0.4,0.7,0.5,1.6,0.3,2.6l0.5-0.5c1-1.1,1.3-2.1,0.9-3.1
			C424.5,413.8,423.5,412.5,421.8,411z M413.4,376.7l-4.6-2.3l-4,4.3c1.4-0.8,2.8-1.4,4.1-1.6C410.2,376.9,411.7,376.7,413.4,376.7z
			"/>
		<path class="st1" d="M459.6,369.5l-9.2,19.5l-1.6-0.7c0.8-1.8,1.3-3.3,1.5-4.3c0.2-1,0-1.8-0.5-2.5c-0.5-0.6-1.5-1.3-2.9-2
			l-26.4-12.4c-1.5-0.7-2.7-1.1-3.6-1.2c-0.9-0.1-1.7,0.3-2.4,1c-0.7,0.7-1.6,2.1-2.5,4l-1.6-0.7l10.5-22.3c1.3-2.8,3-5,4.9-6.7
			c2-1.6,4-2.6,6.1-2.9c2.1-0.3,4.1,0,6,0.9c1.2,0.6,2.3,1.4,3.2,2.4c0.9,1,1.6,2.2,2.2,3.6c0.5,1.4,0.8,2.9,0.8,4.5
			c0,1.6-0.2,3.4-0.7,5.3c1.9-0.7,4.5-1.4,7.8-2.2l4.6-1.3c0.2-0.1,0.5-0.2,0.9-0.3c0.4-0.1,0.8-0.3,1.4-0.4c1.5-0.4,2.8-0.7,3.8-1
			c1-0.3,1.9-0.6,2.8-1c0.9-0.3,1.6-0.7,2.2-1.2c0.6-0.4,1.2-0.9,1.7-1.5l1.6,0.7l-2.5,5.3c-0.6,1.2-1.4,2.2-2.4,3.1
			c-1,0.8-2.3,1.5-3.7,2c-1.5,0.5-3.3,1.1-5.5,1.6l-6.9,1.6c-3.2,0.7-5.5,1.3-6.9,1.8c-1.3,0.5-2.2,1-2.5,1.7l-1.5,3.1l12,5.6
			c1.2,0.6,2.2,0.8,3,0.9c0.8,0,1.6-0.4,2.4-1.3c0.4-0.5,0.8-1.1,1.3-1.8c0.5-0.7,0.8-1.3,1-1.7L459.6,369.5z M420.7,366.2
			l27.9,13.1c1.8,0.8,2.7,2.1,2.7,3.7c1.1-2.5,0.7-4.1-1.1-5l-28.5-13.4c-1.5-0.7-2.6-1.1-3.4-1.3c-0.8-0.2-1.5-0.1-2.2,0.3
			c-0.6,0.4-1.2,1.2-1.7,2.4c0.9-0.8,1.8-1.1,2.6-1.1C417.8,365,419.1,365.4,420.7,366.2z M424,360.4l12.7,6l2.2-4.6
			c0.7-1.5,1.2-3.2,1.4-4.9c0.2-1.7,0.1-3.2-0.3-4.3c-0.7-2.2-2.6-4-5.5-5.4c-3.5-1.7-6.7-1.7-9.4,0c-1,0.6-1.8,1.3-2.4,2.1
			c-0.6,0.8-1.3,2-1.9,3.4c-0.7,1.5-1,2.6-1,3.6c0,0.9,0.4,1.7,1.1,2.3C421.5,359.1,422.5,359.7,424,360.4z M441.2,356.4
			c0.9-2.7,0.9-5.1,0-7.2c-0.9-2.1-2.7-3.8-5.4-5c-2.6-1.2-4.9-1.6-7.1-1.1c-2.1,0.5-3.9,1.8-5.2,3.9c1.7-1.3,3.4-2,5.3-2.1
			c1.8-0.1,4,0.3,6.4,1.5c2.6,1.2,4.2,2.6,5.1,4.2C441.1,352.1,441.4,354.1,441.2,356.4z M441.8,359.7l-1.1,2.3
			c0.8-0.4,2-0.9,3.4-1.3c1.4-0.4,3.3-0.9,5.7-1.4c2.4-0.5,4.8-1.1,7.2-1.6c2.2-0.5,4-1.1,5.4-1.8c1.4-0.7,2.4-1.4,3-2.1
			c0.6-0.7,1.2-1.5,1.7-2.5c-1.1,0.9-2.4,1.7-3.9,2.3c-1.5,0.6-3.3,1.2-5.4,1.7c-2.1,0.5-4.3,1.1-6.6,1.6c-2.3,0.5-4.5,1.1-6.7,1.8
			c-0.4,0.1-0.8,0.2-1.2,0.3C442.8,359.1,442.3,359.4,441.8,359.7z"/>
		<path class="st1" d="M435.5,299.5l-1.7-0.2l1.9-13.8l1.7,0.2c0,0.9,0.3,1.9,0.8,2.9c0.5,1,1.4,2.1,2.5,3.3
			c1.1,1.2,2.5,2.4,4.2,3.7l14.4,11.3l11.1,1.5c2,0.3,3.3,0,3.9-0.9c0.6-0.9,1.2-2.6,1.7-5l1.7,0.2l-2.9,20.8l-1.7-0.2l0.1-0.6
			c0.2-1.8,0.2-3.2-0.1-4.1c-0.3-0.9-0.9-1.6-1.6-1.9c-0.7-0.3-1.6-0.6-2.8-0.7l-9-1.2l-23.9,10.2c-1.4,0.6-2.5,1.2-3.2,1.8
			c-0.7,0.6-1.2,1.7-1.4,3.4l-1.7-0.2l2.8-20.4l1.7,0.2c-0.2,1.9-0.3,3.3-0.1,4.3c0.1,1,0.8,1.6,1.9,1.8c0.9,0.1,2.6-0.4,5.2-1.5
			l16.1-6.9l-9.2-7.3c-1.7-1.3-3.1-2.4-4.4-3.1c-1.2-0.7-2.4-1.1-3.6-1.3c-1-0.1-2,0.1-2.9,0.7c-0.9,0.6-1.4,1.5-1.6,2.7
			L435.5,299.5z M459.4,311.7l-23.4,9.9c-1.5,0.6-2.6,1.2-3.1,1.6c-0.5,0.5-0.8,1.1-0.9,2.1l-0.1,0.9c0.3-0.5,0.7-0.9,1.3-1.2
			c0.5-0.3,1.4-0.7,2.6-1.2l23.9-10.2l10.7,1.5c1.2,0.2,2,0.5,2.4,0.9c0.4,0.5,0.8,1.3,1.2,2.4l0.2-1.3c0.2-1.3,0-2.2-0.6-2.8
			c-0.6-0.6-1.5-1-2.8-1.2L459.4,311.7z M440,294.7l0.7,0.1c-1-0.7-1.8-1.3-2.3-1.9c-0.5-0.6-1-1.3-1.7-2.3l-0.7,5.4
			C437,294.9,438.3,294.5,440,294.7z"/>
	</g>
</g>
</svg>
