<svg id="Layer_1" data-name="Layer 1" xmlns="http://www.w3.org/2000/svg" viewBox="0 0 990.98 968.57"><defs><style>.cls-1{fill:#e82e2f;}.cls-2{fill:#231f20;}.cls-3,.cls-4,.cls-6{fill:#fff;}.cls-4{font-size:155.54px;}.cls-4,.cls-6{font-family:Castellar, Castellar;}.cls-5{fill:#e92f30;}.cls-6{font-size:153.64px;}</style></defs><title>eddys-cleveland</title><circle class="cls-1" cx="495.49" cy="484.28" r="413.15"/><ellipse class="cls-2" cx="495.49" cy="484.28" rx="495.49" ry="484.28"/><ellipse class="cls-3" cx="495.49" cy="484.22" rx="482.94" ry="472.02"/><ellipse class="cls-2" cx="495.49" cy="484.22" rx="474.58" ry="463.85"/><text class="cls-4" transform="translate(54.65 585.03) rotate(68.62)">C</text><text class="cls-4" transform="translate(110.3 713.96) rotate(51.66)">L</text><text class="cls-4" transform="matrix(0.79, 0.61, -0.61, 0.79, 183.27, 801.95)">E</text><text class="cls-4" transform="translate(269.99 868.3) rotate(21.37)">V</text><text class="cls-4" transform="translate(407.49 916.36) rotate(5.39)">E</text><text class="cls-4" transform="translate(512.73 924.84) rotate(-8.12)">L</text><text class="cls-4" transform="translate(629.26 907.36) rotate(-24.76)">A</text><text class="cls-4" transform="translate(765.46 841.12) rotate(-44.85)">N</text><text class="cls-4" transform="translate(880.2 719.43) rotate(-66.17)">D</text><circle class="cls-3" cx="495.49" cy="484.28" r="295.86"/><g id="star-rate"><polygon class="cls-5" points="495.49 591.35 659.67 711.16 597.55 515.91 761.73 400.54 562.05 400.54 495.49 200.86 428.93 400.54 229.25 400.54 393.43 515.91 331.31 711.16 495.49 591.35"/></g><polygon class="cls-3" points="541.38 398.32 541.45 391.67 498.38 476.14 508.17 495.79 541.38 398.32"/><path class="cls-3" d="M484.67,519.57l-39.13,42.21a21.37,21.37,0,0,0-2.66-.22c-11.59-.22-22.32,8.94-25.54,21.75a29.91,29.91,0,0,0,2,20.59,22.72,22.72,0,0,0,14.85,12.35,20.92,20.92,0,0,0,4.85.65h0c8.86.16,17.23-5.16,22.1-13.41a6.18,6.18,0,0,0,4.07-11.66,29.5,29.5,0,0,0-2.62-17.27,23.94,23.94,0,0,0-7.11-8.63L489.3,534.1Zm-28.74,58.3a22.45,22.45,0,0,1,1.43,15.48c-2.38,9.49-10,16.27-18.19,16.13a14.8,14.8,0,0,1-3.17-.42,15.44,15.44,0,0,1-10-8.46,22.52,22.52,0,0,1-1.44-15.48c2.38-9.49,10-16.28,18.2-16.13a14.28,14.28,0,0,1,3.18.42A15.36,15.36,0,0,1,455.93,577.87Z" transform="translate(-4.02 -14.62)"/><path class="cls-3" d="M597.05,615.43c-.86-1.41-18.18-9.4-18.55-18.77a31.63,31.63,0,0,0-.47-10.4c-2.75-12.93-13.15-22.46-24.73-22.67-.31,0-.63,0-1,0L509,514.77,454.77,406l1.21,9.6,36.26,113.48,13.46.55,33.78,38.63a24.68,24.68,0,0,0-6.33,7.59,29.93,29.93,0,0,0-2.73,20.5c2.75,12.93,13.15,22.46,24.73,22.68a22.11,22.11,0,0,0,4.86-.48,21.64,21.64,0,0,0,9.64-4.8c9.18-3.52,18.4,4.86,21,5.91S598,616.92,597.05,615.43Zm-97.84-93.12a3.89,3.89,0,1,1,4-3.82A3.91,3.91,0,0,1,499.21,522.31Zm69.56,80.89a15.49,15.49,0,0,1-10.31,8.09,13.76,13.76,0,0,1-3.19.3c-8.16-.14-15.56-7.21-17.59-16.77a22.43,22.43,0,0,1,2-15.42A15.47,15.47,0,0,1,550,571.3a14.18,14.18,0,0,1,3.2-.29c8.16.14,15.55,7.21,17.59,16.78A22.5,22.5,0,0,1,568.77,603.2Z" transform="translate(-4.02 -14.62)"/><text class="cls-6" transform="matrix(0.85, -0.53, 0.53, 0.85, 279.66, 231.99)">E</text><text class="cls-6" transform="matrix(0.97, -0.22, 0.22, 0.97, 354.51, 181.62)">D</text><text class="cls-6" transform="translate(467.39 153.06) rotate(6.32)">D</text><text class="cls-6" transform="matrix(0.92, 0.39, -0.39, 0.92, 569.24, 160.39)">Y</text><text class="cls-6" transform="translate(664.98 202.87) rotate(33.12)">’</text><text class="cls-6" transform="matrix(0.76, 0.66, -0.66, 0.76, 688.95, 216.23)">s</text></svg>