<?xml version="1.0" encoding="utf-8"?>
<!-- Generator: Adobe Illustrator 22.1.0, SVG Export Plug-In . SVG Version: 6.00 Build 0)  -->
<svg version="1.1" id="Layer_1" xmlns="http://www.w3.org/2000/svg" xmlns:xlink="http://www.w3.org/1999/xlink" x="0px" y="0px"
	 viewBox="0 0 991 968.6" style="enable-background:new 0 0 991 968.6;" xml:space="preserve">
<style type="text/css">
	.st0{fill:#E82E2F;}
	.st1{fill:#231F20;}
	.st2{fill:#FFFFFF;}
	.st3{enable-background:new    ;}
	.st4{fill:#E92F30;}
</style>
<title>eddys-cleveland</title>
<circle class="st0" cx="495.5" cy="484.3" r="413.1"/>
<ellipse class="st1" cx="495.5" cy="484.3" rx="495.5" ry="484.3"/>
<ellipse class="st2" cx="495.5" cy="484.2" rx="482.9" ry="472"/>
<ellipse class="st1" cx="495.5" cy="484.2" rx="474.6" ry="463.9"/>
<g class="st3">
	<path class="st2" d="M115.9,685.2l-23.5-2.9c-1.4-4.7-2.5-8-3.3-10.1c-1-2.5-2.5-5.8-4.5-9.9s-3.5-7.3-4.4-9.7
		c-3.7-9.5-5.6-18.5-5.5-27c0.1-8.5,1.7-16.1,4.9-22.8c3.2-6.7,7.3-12.4,12.5-17.1c5.2-4.7,10.8-8.2,17.1-10.7
		c8-3.1,15.8-4.6,23.6-4.6c7.8,0.1,15.1,1.7,21.8,4.7c6.8,3.1,12.7,7.4,17.9,13c5.2,5.6,9.2,12.2,12.2,19.8c0.8,2,1.3,3.2,1.4,3.8
		c0.2,0.5,0.6,1.7,1.2,3.5c0.6,1.8,1.2,3.6,1.8,5.4c2.1,6.5,3.8,11.5,5.1,14.9c3,7.5,5.1,12.4,6.4,14.5l-23.4,10.2l-0.3-0.8
		l13.9-10.9c-0.2-1.5-0.7-4.2-1.5-8c-0.8-3.8-1.7-7.5-2.6-11.1c-1-3.6-2.2-7.2-3.6-10.9c-3.8-9.7-9-17.3-15.6-22.6
		c-6.6-5.4-14.1-8.4-22.7-9.1c-8.5-0.7-17.4,0.8-26.7,4.4c-7.2,2.8-13.4,6.7-18.4,11.5c-5.1,4.9-8.9,10.4-11.4,16.5
		c-2.5,6.1-3.8,12.5-3.7,19.1c0,6.6,1.3,13.1,3.8,19.4c2.5,6.3,5.9,11.8,10.2,16.5s10.1,8.1,17.5,10.2L115.9,685.2z M187.5,620.2
		l-3.2-8.3c-3.2-8.2-7.5-15.2-12.9-21c-5.4-5.8-11.4-10.1-18.1-13c-6.7-2.8-13.7-4.3-20.9-4.2c-7.3,0-14.5,1.4-21.7,4.3
		c-6.6,2.6-12.4,6.3-17.4,11.2c-5,4.9-8.9,10.7-11.7,17.5c-2.8,6.8-4.1,14.1-4.1,21.9c0.1,7.9,1.7,16,5,24.5c1.5,3.8,2.5,6.2,3,7.2
		l0.9-0.4c-3.9-9.3-5.9-18.2-6.1-26.5c-0.2-8.4,1.2-15.9,4.1-22.5c2.9-6.6,6.9-12.3,12.1-17c5.1-4.7,10.8-8.3,17-10.7
		c6.1-2.4,12.6-3.7,19.3-4c6.7-0.3,13.4,0.7,20,3c6.6,2.3,12.7,6.2,18.3,11.7c5.6,5.5,10.1,12.8,13.7,21.9l1.9,5L187.5,620.2z"/>
</g>
<g class="st3">
	<path class="st2" d="M198.7,647.7l0.6-0.5l35.6,45l-0.6,0.5l-13.8-13.1c-4.3,2.5-9.8,6.2-16.6,11c-6.8,4.8-12.7,9.1-17.5,13
		l-25.6,20.3c-6.2,4.9-12.3,10.3-18.5,16.2c3.2,8.5,7.7,16.3,13.4,23.6c2.8,3.5,5.5,6.6,8.2,9.2c2.7,2.6,4.7,4.4,6,5.3l21.2-6.7
		l0.7,0.9l-24,14.4L111.9,716l0.6-0.5l13.3,12.6c2.3-1,6-3.3,11.2-6.8c5.2-3.5,10.4-7.2,15.8-11.2c5.4-3.9,9.1-6.7,11.3-8.4l15-11.9
		c3.3-2.6,7-5.7,11.2-9.2c4.1-3.5,7.7-6.7,10.8-9.4c3-2.8,5.5-5.1,7.2-7.1L198.7,647.7z M211.3,667l-82.7,65.4l3.3,4.2l82.7-65.4
		L211.3,667z"/>
</g>
<g class="st3">
	<path class="st2" d="M251.8,715.6l0.5-0.6l63.9,49.3l-12.9,19.8l-1-0.7l7-18c-3.2-2.9-6.9-5.9-11.2-9.2c-7.7-6-14.4-10.2-19.9-12.8
		c-5.8,5.9-11.9,13-18.3,21.3c-4,5.2-7.1,9.5-9.3,13c6,5.2,9.9,8.5,11.6,9.9c4.5,3.5,9.4,6.8,14.6,10l10.6-8.1l1,0.8l-19.7,25.6
		l-1-0.8l5.5-13c-3.2-3.1-6.9-6.3-11.1-9.5c-5.3-4.1-10.3-7.5-15-10.4c-4.1,4.2-7.8,8.7-11,13.2c-4.3,5.7-7.8,10.5-10.6,14.3
		c-2.7,3.8-5,7.2-6.7,10.1c3.7,5.2,9.6,10.9,17.5,17c4.6,3.5,8.5,6.3,11.9,8.4l16-10.8l0.8,0.6l-15.8,17.8L184.7,803l0.5-0.6l16,9
		c1.6-1.4,3.8-3.7,6.7-6.8c2.9-3.2,6-6.8,9.4-10.8c3.4-4,6.3-7.4,8.5-10.2c2.3-2.8,4.2-5.2,5.8-7.3l11.7-15.1
		c1.5-1.9,3.5-4.7,6.1-8.3c2.6-3.6,5.3-7.4,8-11.4c2.7-4,5.3-8,7.8-12.2L251.8,715.6z M268.7,731.5l-64.2,83.2l4.1,3.2l64.2-83.2
		L268.7,731.5z"/>
</g>
<g class="st3">
	<path class="st2" d="M361.4,785.5l-19.6-4.6c-1,10.4-1.3,23.2-0.8,38.6l0.9,26.8c0.1,6.1,0.7,14,1.8,23.9c2.9-2.3,6.4-5.5,10.7-9.5
		c4.3-4,8.1-7.9,11.5-11.5l21.3-21.9c8.4-8.8,14.6-15.9,18.7-21.2l-20.4-11l0.3-0.7l42,16.4l-0.2,0.6l-14-2.3
		c-4.5,3.2-11.8,10.1-22.1,20.7l-46.4,47.7c-6.5,6.6-11.8,12.5-15.8,17.6l-1-0.4c0.3-8.8,0.3-17.4,0-25.5l-2-61.3
		c-0.3-11.5-1.3-22.9-2.9-34.2l-11.5-7.3l0.3-0.7l49.4,19.3L361.4,785.5z M327.4,774.5l3.5,110.6l4.7-4.8l-3.1-103.7L327.4,774.5z"
		/>
</g>
<g class="st3">
	<path class="st2" d="M419.4,806.6l0.1-0.8l80.5,7.6l-0.3,23.7l-1.2-0.1l-3.7-19c-4.3-0.7-9.1-1.3-14.4-1.8
		c-9.7-0.9-17.6-1-23.7-0.2c-1.8,8.1-3.2,17.4-4.2,27.8c-0.6,6.6-0.9,11.9-0.9,16c7.9,1.2,13,1.9,15.1,2.1
		c5.7,0.5,11.6,0.8,17.7,0.7l4.6-12.5l1.3,0.1l-3,32.2l-1.3-0.1l-2.3-13.9c-4.3-0.9-9.2-1.6-14.4-2.1c-6.7-0.6-12.7-0.9-18.2-0.8
		c-1.2,5.8-1.9,11.5-2.2,17.1c-0.6,7.2-1,13.1-1.3,17.8c-0.3,4.7-0.4,8.7-0.3,12.1c6,2.4,14,4.1,23.9,5.1c5.7,0.5,10.6,0.8,14.6,0.7
		l7.8-17.7l1.1,0.1l-3.9,23.5l-81.4-7.7l0.1-0.8l18.3-0.9c0.6-2,1.3-5.1,2-9.3c0.7-4.2,1.5-8.9,2.2-14.2c0.7-5.2,1.3-9.6,1.8-13.2
		c0.4-3.5,0.8-6.7,1-9.3l1.8-19.1c0.2-2.4,0.5-5.9,0.7-10.3c0.3-4.5,0.5-9.1,0.6-13.9c0.1-4.8,0.2-9.6,0.1-14.5L419.4,806.6z
		 M442.2,810.9l-9.9,104.8l5.2,0.5l9.9-104.8L442.2,810.9z"/>
</g>
<g class="st3">
	<path class="st2" d="M499.9,815.1l-0.1-0.8l56.8-8.1l0.1,0.8l-18.3,5.3c0,5,0.4,11.6,1.2,19.9c0.7,8.3,1.5,15.5,2.4,21.7l4.6,32.3
		c1.1,7.8,2.7,15.8,4.7,24.1c9,1.5,18,1.6,27.1,0.3c4.4-0.6,8.4-1.5,12.1-2.5c3.6-1,6.2-1.9,7.6-2.5L603,884l1.1-0.2l0.4,27.9
		l-89.2,12.7l-0.1-0.8l17.6-5.2c0.3-2.5,0.2-6.8-0.3-13.1c-0.5-6.2-1-12.6-1.7-19.2c-0.7-6.6-1.2-11.3-1.6-14l-2.7-18.9
		c-0.6-4.2-1.4-8.9-2.3-14.3c-1-5.4-1.9-10-2.7-14.1c-0.9-4-1.7-7.3-2.5-9.8L499.9,815.1z M523,813.9l14.9,104.4l5.3-0.8
		l-14.9-104.4L523,813.9z"/>
</g>
<g class="st3">
	<path class="st2" d="M642.5,777.6l62.7,57.5c8.1,7.5,16.9,14.6,26.3,21.4l12.6-2.9l0.3,0.7l-48.7,22.5l-0.3-0.7L713,865
		c-2.8-4.2-6.3-8.6-10.7-13.1c-4.3-4.5-8.5-8.2-12.6-11.1l-43.2,19.9c0.3,5.5,0.6,10,0.8,13.5c0.3,3.5,0.6,7.1,1.1,10.8
		c0.5,3.7,1,6.7,1.7,9l19.2-5.9l0.3,0.7L631,906.6l-0.3-0.7l11.6-8.3c0.6-6.8,0.7-13.9,0.3-21.6l-5.5-96L642.5,777.6z M642.6,794
		l75.3,69.2l4.6-2.1l-80.3-73.9L642.6,794z M644.1,800.3c-0.1,3-0.1,7.3,0,13c0.1,5.6,0.3,10.9,0.5,15.7c0.2,4.9,0.5,10,0.9,15.5
		c0.3,5.4,0.5,9,0.6,10.8c2.9-0.9,6.2-2.1,9.8-3.6c3.7-1.5,7.1-3,10.4-4.5c8-3.7,14.5-7.1,19.3-10.1c-4.1-4.4-10.5-10.4-19.1-18.1
		C658,811.3,650.5,805.1,644.1,800.3z"/>
</g>
<g class="st3">
	<path class="st2" d="M688.9,761.5l-0.5-0.5l27.2-27c4.2,0.7,9.5,1.3,15.8,1.9c6.3,0.6,11.8,1,16.5,1.3l50.8,2.8
		c6.7,0.3,11.8,0.5,15.5,0.7c3.7,0.1,8.3,0.2,13.8,0.1c-2.2-2.7-4.4-5.1-6.5-7.4c-2.1-2.2-4.1-4.3-5.9-6.2l-23.1-23.3
		c-8.3-8.4-15.6-14.9-21.9-19.5l-15.1,11l-0.5-0.5l32-31.9l0.5,0.5l-11,15.1c4.3,5.7,10.4,12.5,18.2,20.3l58.7,59l-0.5,0.5
		c-12.4-1.5-24.3-2.6-35.8-3.3l-69.5-3.9c-10.1-0.3-18.3-0.4-24.9,0c4.4,5.4,8.6,10.2,12.9,14.4l33.9,34.1
		c4.5,4.6,10.3,9.6,17.3,15.2l15.7-11.6l0.5,0.5l-32.7,32.6l-0.5-0.5l11.4-15.1c-2.1-3-5.5-7-10.1-11.9c-4.6-5-8.7-9.3-12.4-13
		l-26.2-26.4c-3.1-3.1-6.2-6.2-9.4-9.1c-3.2-3-6.4-5.8-9.7-8.5l-12.4,1.8L688.9,761.5z M706.5,746.9l137,7.6l-5-5.1l-127.4-7
		L706.5,746.9z"/>
</g>
<g class="st3">
	<path class="st2" d="M779.6,672.1l25.3-57.2c4.7-10.7,10.2-19,16.6-25.2c6.4-6.1,13-10.2,19.9-12.4s13.6-2.9,20.3-2.2
		c6.7,0.7,13,2.4,19,5c7.3,3.2,13.6,7.5,18.8,12.7c5.2,5.2,9.1,11.1,11.7,17.7c2.6,6.6,3.8,13.5,3.5,20.8c-0.3,7.3-2,14.6-5.3,22
		l-28.3,64l-0.7-0.3l5-18c-3.6-2.5-9.8-6-18.7-10.5c-8.9-4.5-15.9-7.9-21.1-10.2l-18.2-8c-13.5-6-25.8-10.7-36.9-14.2l-10.2,16.1
		L779.6,672.1z M791.6,652.2l96.3,42.5l2.1-4.9l-96.3-42.5L791.6,652.2z M828.9,654.5l40.6,17.9c6,2.6,12.2,5,18.6,7.1
		c2.7-2.3,5.2-5.3,7.5-8.7c2.3-3.5,4.3-7.1,5.9-10.8c2.3-5.2,3.6-10.7,3.8-16.7c0.3-5.9-0.6-11.8-2.7-17.5
		c-2.1-5.8-5.5-11.2-10.4-16.3c-4.9-5.1-11.1-9.3-18.8-12.7c-8.1-3.6-15.6-5.3-22.7-5.4c-7.1,0-13.5,1.4-19.3,4.3
		c-5.8,2.9-10.9,6.9-15.3,12c-4.4,5.1-8,10.9-10.9,17.4c-2.3,5.2-3.8,10.2-4.5,14.9c1.6,1.1,4,2.4,7.2,4.1c3.2,1.7,6.9,3.6,11.2,5.7
		C823.6,652,826.8,653.5,828.9,654.5z M801.6,626.6l0.7,0.3c3-6.7,6.2-12.5,9.7-17.3c3.5-4.8,7.1-8.6,10.7-11.4
		c3.6-2.8,7.3-4.9,11.1-6.3c3.9-1.5,8.1-2.5,12.6-2.9c4.4-0.4,9.1-0.2,13.9,0.6c4.9,0.8,9.7,2.3,14.6,4.4
		c10.8,4.8,18.8,11.1,24.1,18.9c5.3,7.9,8.1,15.9,8.5,24.2s-0.7,15.4-3.4,21.5l-2.3,5.3l0.7,0.3l2.3-5.3c4.5-10.1,6.1-19.8,4.9-29.2
		s-4.6-17.6-10.4-24.7c-5.8-7.1-13.1-12.6-21.8-16.4c-7.8-3.4-15.3-5.1-22.6-5.1c-7.3,0-13.8,1.2-19.7,3.5
		c-12.9,4.8-23.5,16.6-31.8,35.4L801.6,626.6z"/>
</g>
<circle class="st2" cx="495.5" cy="484.3" r="295.9"/>
<g id="star-rate">
	<polygon class="st4" points="495.5,591.3 659.7,711.2 597.5,515.9 761.7,400.5 562,400.5 495.5,200.9 428.9,400.5 229.2,400.5 
		393.4,515.9 331.3,711.2 	"/>
</g>
<polygon class="st2" points="541.4,398.3 541.5,391.7 498.4,476.1 508.2,495.8 "/>
<path class="st2" d="M480.7,505l-39.1,42.2c-0.9-0.1-1.8-0.2-2.7-0.2c-11.6-0.2-22.3,8.9-25.5,21.8c-1.8,6.9-1.1,14.2,2,20.6
	c2.9,6.1,8.3,10.6,14.9,12.3c1.6,0.4,3.2,0.6,4.9,0.7l0,0c8.9,0.2,17.2-5.2,22.1-13.4c3.3,1,6.7-0.8,7.7-4.1
	c0.9-3.1-0.6-6.4-3.6-7.5c0.9-5.9,0-11.9-2.6-17.3c-1.7-3.4-4.1-6.4-7.1-8.6l33.8-31.8L480.7,505z M451.9,563.2
	c2.3,4.8,2.8,10.3,1.4,15.5c-2.4,9.5-10,16.3-18.2,16.1c-1.1,0-2.1-0.2-3.2-0.4c-4.4-1.2-8.1-4.3-10-8.5c-2.3-4.8-2.8-10.3-1.4-15.5
	c2.4-9.5,10-16.3,18.2-16.1c1.1,0,2.1,0.2,3.2,0.4C446.3,556,450,559.1,451.9,563.2L451.9,563.2z"/>
<path class="st2" d="M593,600.8c-0.9-1.4-18.2-9.4-18.5-18.8c0.4-3.5,0.3-7-0.5-10.4c-2.8-12.9-13.2-22.5-24.7-22.7
	c-0.3,0-0.6,0-1,0L505,500.2l-54.2-108.8l1.2,9.6l36.3,113.5l13.5,0.5l33.8,38.6c-2.6,2.1-4.8,4.7-6.3,7.6
	c-3.3,6.3-4.3,13.6-2.7,20.5c2.8,12.9,13.2,22.5,24.7,22.7c1.6,0,3.3-0.1,4.9-0.5c3.6-0.8,6.9-2.4,9.6-4.8c9.2-3.5,18.4,4.9,21,5.9
	S594,602.3,593,600.8z M495.2,507.7c-2.1-0.1-3.8-1.9-3.8-4c0.1-2.1,1.9-3.8,4-3.8c2.1,0.1,3.8,1.8,3.8,4
	C499.1,506,497.4,507.7,495.2,507.7C495.2,507.7,495.2,507.7,495.2,507.7z M564.8,588.6c-2.1,4.1-5.8,7.1-10.3,8.1
	c-1,0.2-2.1,0.3-3.2,0.3c-8.2-0.1-15.6-7.2-17.6-16.8c-1.2-5.2-0.5-10.7,2-15.4c2.1-4.1,5.8-7.1,10.3-8.1c1.1-0.2,2.1-0.3,3.2-0.3
	c8.2,0.1,15.5,7.2,17.6,16.8C567.9,578.4,567.2,583.8,564.8,588.6z"/>
<g class="st3">
	<path class="st2" d="M223.1,138.5l-0.4-0.6l67.9-42.3l14,18.8l-1,0.6l-14.3-12.7c-3.8,2-7.9,4.4-12.4,7.2
		c-8.2,5.1-14.5,9.8-18.8,14.1c3.4,7.4,7.9,15.5,13.4,24.4c3.4,5.5,6.4,9.9,8.9,13.1c7-3.8,11.3-6.3,13.2-7.4
		c4.8-3,9.6-6.4,14.3-10.1l-3.9-12.6l1.1-0.7l16.9,27.2l-1.1,0.7l-10.2-9.6c-4,1.9-8.2,4.2-12.6,7c-5.6,3.5-10.6,6.9-14.8,10.3
		c2.5,5.3,5.4,10.2,8.5,14.8c3.8,6,7.1,10.9,9.6,14.8c2.6,3.9,4.9,7.1,7,9.7c6.2-1.7,13.5-5.1,21.9-10.4c4.8-3,8.8-5.8,11.9-8.2
		l-4.5-18.5l0.9-0.6l11,20.8l-68.7,42.8l-0.4-0.6l13.8-11.7c-0.7-2-2.1-4.8-4-8.5c-2-3.7-4.2-7.9-6.8-12.5
		c-2.6-4.6-4.7-8.4-6.5-11.4c-1.8-3.1-3.4-5.7-4.8-8l-10-16.1c-1.3-2-3.1-4.9-5.6-8.6c-2.5-3.7-5.1-7.5-7.9-11.3
		c-2.8-3.9-5.7-7.7-8.6-11.4L223.1,138.5z M243.7,128.2l55.1,88.4l4.4-2.7l-55.1-88.4L243.7,128.2z"/>
</g>
<g class="st3">
	<path class="st2" d="M332.9,74.5l59.9-13.6c11.2-2.5,21-3.1,29.6-1.6c8.6,1.4,15.7,4.3,21.4,8.4c5.7,4.2,10.2,9.1,13.6,14.7
		c3.4,5.7,5.7,11.7,7.2,18c1.7,7.7,2.1,15.1,1,22.2c-1.1,7.2-3.4,13.7-7.1,19.6c-3.7,5.9-8.5,10.9-14.4,15c-5.9,4.1-12.7,7-20.5,8.7
		l-67,15.2l-0.2-0.7l17.1-6.6c-0.1-4.3-1-11.3-2.7-20.9c-1.7-9.6-3.1-17.2-4.4-22.6l-4.3-19.1c-3.2-14.1-6.7-26.6-10.5-37.4
		l-18.7,1.4L332.9,74.5z M355.6,72.3l22.9,100.9l5.1-1.2L360.7,71.2L355.6,72.3z M375.7,103.1l9.6,42.5c1.4,6.3,3.2,12.5,5.3,18.8
		c3.4,0.8,7.2,1,11.3,0.8c4.1-0.2,8.1-0.8,12-1.7c5.4-1.2,10.6-3.5,15.4-6.7c4.8-3.3,8.9-7.4,12.2-12.4c3.3-5,5.6-10.9,6.7-17.7
		c1.2-6.8,0.8-14.3-1-22.3c-1.9-8.4-4.9-15.4-9.1-21c-4.1-5.6-9-9.8-14.7-12.7c-5.7-2.9-11.8-4.6-18.4-5c-6.6-0.5-13.3,0-20.1,1.6
		c-5.5,1.2-10.3,3-14.4,5.2c0.1,1.9,0.4,4.6,1,8.1c0.5,3.5,1.2,7.5,2,12.2C374.5,97.5,375.2,100.9,375.7,103.1z M381.7,65.3l0.2,0.7
		c7-1.6,13.5-2.4,19.4-2.5c5.9-0.1,11,0.5,15.2,1.7c4.3,1.2,8.1,2.9,11.5,5c3.5,2.2,6.7,5,9.6,8.2c2.9,3.3,5.5,7,7.7,11.3
		c2.2,4.3,3.9,9,5.1,14.1c2.6,11.3,2.3,21.3-0.8,30.1c-3.1,8.8-7.8,15.7-14.1,20.9c-6.3,5.2-12.6,8.5-18.9,9.9l-5.5,1.3l0.2,0.7
		l5.5-1.3c10.6-2.4,19.2-6.8,25.9-13.2c6.7-6.4,11.1-13.9,13.3-22.7c2.2-8.7,2.3-17.7,0.2-26.8c-1.8-8.1-4.9-15.1-9.2-20.8
		c-4.3-5.7-9-10.2-14.3-13.5c-11.3-7.4-26.8-8.8-46.6-4.4L381.7,65.3z"/>
</g>
<g class="st3">
	<path class="st2" d="M482.1,44.2l61.4,6.8c11.4,1.3,21,4,28.6,8.2c7.7,4.2,13.5,9.2,17.6,15c4.1,5.8,6.7,12,8.1,18.5
		s1.6,13,0.9,19.4c-0.9,7.9-3,15-6.3,21.5c-3.4,6.4-7.8,11.9-13.2,16.3c-5.4,4.4-11.6,7.6-18.6,9.5c-6.9,1.9-14.4,2.4-22.3,1.6
		l-68.7-7.6l0.1-0.7L488,152c1.3-4.1,2.8-11.1,4.3-20.8c1.6-9.7,2.7-17.4,3.3-22.9l2.2-19.5c1.6-14.5,2.4-27.5,2.4-39L482,44.9
		L482.1,44.2z M504.4,49.6l-11.4,103.3l5.2,0.6l11.4-103.3L504.4,49.6z M513.4,85.5l-4.8,43.5c-0.7,6.4-1.1,13-1.1,19.7
		c3,1.8,6.5,3.3,10.4,4.5c3.9,1.1,7.9,1.9,12,2.4c5.6,0.6,11.2,0.2,16.8-1.3c5.7-1.5,10.9-4.1,15.7-7.7c4.8-3.6,8.9-8.5,12.2-14.6
		c3.3-6.1,5.5-13.3,6.4-21.5c1-8.6,0.4-16.3-1.7-22.9c-2.1-6.6-5.3-12.3-9.8-16.9c-4.4-4.6-9.7-8.2-15.8-10.8
		c-6.1-2.6-12.6-4.3-19.6-5.1c-5.6-0.6-10.8-0.6-15.4,0.2c-0.5,1.9-1.1,4.5-1.8,8c-0.7,3.5-1.4,7.6-2.1,12.3
		C514.1,79.7,513.6,83.2,513.4,85.5z M531.5,51.5l-0.1,0.7c7.2,0.8,13.6,2.1,19.2,4s10.2,4.1,13.9,6.7c3.7,2.6,6.8,5.4,9.3,8.6
		c2.6,3.3,4.8,6.9,6.4,11c1.7,4.1,2.9,8.5,3.6,13.3c0.7,4.8,0.8,9.8,0.2,15c-1.3,11.6-4.8,21-10.7,28.3
		c-5.8,7.3-12.6,12.4-20.3,15.2c-7.7,2.8-14.7,3.9-21.3,3.2l-5.7-0.6l-0.1,0.7l5.7,0.6c10.8,1.2,20.5-0.1,28.9-4
		c8.5-3.9,15.2-9.6,20.1-17.2c5-7.6,8-16,9-25.4c0.9-8.4,0.3-16-1.9-22.8c-2.2-6.9-5.2-12.7-9.1-17.5C570.5,60.7,556.2,54.2,536,52
		L531.5,51.5z"/>
</g>
<g class="st3">
	<path class="st2" d="M626.4,69.1l-12.9-8.3l0.3-0.7l53.7,22.8l-0.3,0.7l-21.7-6.3c0.2,8.1,1.2,17.9,3,29.3
		c1.8,11.4,3.7,20.9,5.7,28.5c7.1-3.3,16-8.3,26.6-15.2c10.7-6.8,18.9-12.6,24.6-17.2l-19.2-11l0.3-0.7l40.2,17l-0.4,0.8l-12.8-2.8
		c-4.1,2.1-8.1,4.3-12.1,6.6c-4,2.3-9.2,5.5-15.6,9.5c-6.4,4-11.5,7.2-15.3,9.7c-3.8,2.5-9.4,6.2-17,11.3
		c-2.8,5.5-5.6,11.7-8.6,18.7c-4,9.5-6.5,17.4-7.6,23.8l16.1,9.7l-0.3,0.7l-52.3-22.2l0.3-0.7l17.8,4.7c2-2.6,4.2-6.3,6.8-11.1
		c2.6-4.8,4.8-9.5,6.7-13.9c1.4-3.3,3.5-8.5,6.2-15.7c-0.6-6-1.5-13.2-2.8-21.7c-1.3-8.4-2.7-16.8-4.4-25.1
		C629.8,82.1,628.1,75,626.4,69.1z M623.2,180.1l4.7,2l18.3-43.1l-10.5-66.6l-5-2.1l10.7,67.2L623.2,180.1z"/>
</g>
<g class="st3">
	<path class="st2" d="M720.5,143.3l-0.2-1c5-1.2,8.9-3.5,11.7-6.9c-2.3-1.5-3.6-3.5-4-5.9c-0.4-2.4,0-4.6,1.3-6.5
		c1.4-2.2,3.3-3.6,5.7-4.2c2.4-0.6,4.7-0.2,7.1,1.3c2.6,1.7,3.9,3.9,3.9,6.6c0,2.7-0.7,5.1-2.1,7.3c-2.8,4.2-6.4,7-10.9,8.2
		C728.4,143.4,724.3,143.8,720.5,143.3z M733.2,133.4l7.4-11.3c-3.9-2.1-7-1.3-9.3,2.2c-1,1.5-1.3,3-1,4.7
		C730.6,130.6,731.6,132.1,733.2,133.4z"/>
</g>
<g class="st3">
	<path class="st2" d="M711,200.3l-7.8,17.8c1.3,2.9,3.2,5.9,5.5,9c2.4,3.1,4.7,5.6,6.8,7.4c2.9,2.5,5.9,4.3,9.1,5.3
		c3.2,1.1,6.3,1.5,9.1,1.3c2.8-0.2,5.5-0.9,7.9-2.2c2.5-1.2,4.5-2.8,6.1-4.6c3.3-3.8,4.8-8,4.4-12.8c-0.3-4.8-1.7-11.8-4.2-21
		c-2.5-9.2-3.9-16.4-4.3-21.4c-0.2-4.4,0.1-8.3,1.1-11.7c1-3.4,2.7-6.6,5.3-9.6c2.8-3.3,6.6-5.7,11.1-7.4c4.6-1.7,9.7-2,15.3-0.9
		c5.6,1.1,11.1,4,16.5,8.7c2.5,2.1,5,4.5,7.5,7.2c2.6,2.7,4.4,4.4,5.4,5.4c0.9,0.8,1.8,1.5,2.6,2.1c0.8,0.7,1.5,1.2,2,1.5
		c0.5,0.4,1.1,0.7,1.7,1.1l-16.6,19.8l-0.7-0.6l7.8-16.3c-3.3-6.9-6.9-12.1-10.8-15.5c-3.3-2.8-6.7-4.8-10.4-5.8
		c-3.7-1-7.2-1.1-10.5-0.2c-3.3,0.9-6.1,2.7-8.5,5.4c-2.4,2.8-3.7,6.2-3.8,10.3c-0.1,4,0.6,8.6,2,13.8c1.4,5.2,3,10.7,4.6,16.5
		c1.7,5.9,2.7,11,3,15.3c0.6,8.5-1.7,15.6-6.8,21.6c-2.9,3.3-6.8,6-11.6,8.1c-4.8,2-10.4,2.5-16.7,1.4c-6.3-1.1-12.7-4.5-19.3-10.3
		c-2.3-2-5-4.6-8.1-7.8c-3.1-3.2-5.4-5.4-7-6.8c-0.7-0.6-1.3-1.1-1.7-1.4c-0.4-0.3-1.1-0.8-2-1.4c-0.9-0.7-1.4-1-1.6-1.2l16.5-20.9
		L711,200.3z M793.9,161.1l-1.8-1.6c-4.2-3.6-8.8-6.1-13.8-7.5c-5-1.4-9.8-1.4-14.6-0.2c-4.7,1.3-8.8,3.9-12.1,7.8
		c-4.2,4.8-6,11.2-5.5,19.1c0.3,3.4,0.7,6.4,1.3,9c0.6,2.6,1.5,6.5,2.8,11.5c1.3,5.1,2.4,9.2,3.1,12.3c0.7,3.1,1.1,5.9,1.3,8.3
		c0.4,6.4-1.2,11.7-4.8,15.9c-2.5,2.9-5.7,5-9.6,6.3c-3.9,1.3-8.1,1.5-12.5,0.6c-4.5-0.9-8.7-3.1-12.8-6.5l-0.5,0.6
		c4.5,4.2,9.3,7,14.5,8.3c5.2,1.4,10,1.4,14.5,0.2c4.5-1.3,8-3.4,10.8-6.6c2.3-2.7,4-5.5,5.1-8.5c1-3,1.4-6.6,1.1-10.9
		c-0.2-2.5-1-6.4-2.4-11.8c-1.4-5.4-2.8-10.8-4.3-16.3c-1.4-5.5-2.3-9.7-2.6-12.7c-0.6-7.4,1.2-13.5,5.4-18.3
		c3.6-4.2,8.8-6.5,15.6-7c6.8-0.5,13.9,2.4,21.3,8.5L793.9,161.1z"/>
</g>
</svg>
