<?xml version="1.0" encoding="utf-8"?>
<!-- Generator: Adobe Illustrator 19.1.0, SVG Export Plug-In . SVG Version: 6.00 Build 0)  -->
<svg version="1.1" id="Layer_1" xmlns="http://www.w3.org/2000/svg" xmlns:xlink="http://www.w3.org/1999/xlink" x="0px" y="0px"
	 viewBox="0 0 400 400" style="enable-background:new 0 0 400 400;" xml:space="preserve">
<style type="text/css">
	.st0{fill:#E92F30;}
	.st1{fill:#FFFFFF;}
	.st2{fill:#EA3030;}
</style>
<circle class="st0" cx="204.4" cy="195.6" r="159.4"/>
<g>
	<circle class="st1" cx="204.4" cy="195.6" r="114.1"/>
	<g>
		<g id="star-rate">
			<polygon class="st2" points="204.4,236.9 267.8,283.1 243.8,207.8 307.1,163.3 230.1,163.3 204.4,86.2 178.7,163.3 101.7,163.3 
				165.1,207.8 141.1,283.1 			"/>
		</g>
	</g>
	<g>
		<g>
			<polygon class="st1" points="222.1,162.4 222.2,159.8 205.5,192.4 209.3,200 			"/>
			<path class="st1" d="M198.7,203.5l-15.1,16.3c-0.3,0-0.7-0.1-1-0.1c-4.5-0.1-8.6,3.4-9.9,8.4c-0.7,2.7-0.4,5.6,0.8,7.9
				c1.2,2.5,3.3,4.1,5.7,4.8c0.6,0.2,1.2,0.2,1.9,0.2l0,0c3.4,0.1,6.6-2,8.5-5.2c0.2,0.1,0.4,0.1,0.7,0.1c1.3,0,2.4-1,2.4-2.3
				c0-1-0.6-1.9-1.5-2.3c0.3-2.3,0-4.7-1-6.7c-0.7-1.4-1.6-2.5-2.7-3.3l13.1-12.3L198.7,203.5z M187.6,226c0.9,1.8,1.1,3.9,0.6,6
				c-0.9,3.7-3.9,6.3-7,6.2c-0.4,0-0.8-0.1-1.2-0.2c-1.6-0.4-3-1.6-3.9-3.3c-0.9-1.8-1.1-3.9-0.6-6c0.9-3.7,3.9-6.3,7-6.2
				c0.4,0,0.8,0.1,1.2,0.2C185.4,223.2,186.8,224.3,187.6,226z"/>
			<path class="st1" d="M242.1,240.5c-0.3-0.5-7-3.6-7.2-7.2c0.2-1.3,0.1-2.7-0.2-4c-1.1-5-5.1-8.7-9.5-8.7c-0.1,0-0.2,0-0.4,0
				l-16.7-18.8l-20.9-42l0.5,3.7l14,43.8l5.2,0.2l13,14.9c-1,0.8-1.8,1.8-2.4,2.9c-1.3,2.3-1.6,5.1-1.1,7.9c1.1,5,5.1,8.7,9.5,8.7
				c0.6,0,1.3-0.1,1.9-0.2c1.4-0.3,2.6-0.9,3.7-1.9c3.5-1.4,7.1,1.9,8.1,2.3C240.6,242.6,242.4,241.1,242.1,240.5z M204.3,204.6
				c-0.8,0-1.5-0.7-1.5-1.5c0-0.8,0.7-1.5,1.5-1.5c0.8,0,1.5,0.7,1.5,1.5C205.8,204,205.1,204.6,204.3,204.6z M231.1,235.8
				c-0.9,1.7-2.3,2.8-4,3.1c-0.4,0.1-0.8,0.1-1.2,0.1c-3.1-0.1-6-2.8-6.8-6.5c-0.5-2.1-0.2-4.2,0.8-5.9c0.9-1.7,2.3-2.8,4-3.1
				c0.4-0.1,0.8-0.1,1.2-0.1c3.1,0.1,6,2.8,6.8,6.5C232.4,232,232.1,234.1,231.1,235.8z"/>
		</g>
	</g>
</g>
</svg>
